<svg width="16" height="16" viewBox="0 0 16 16" fill="none" xmlns="http://www.w3.org/2000/svg">
<path d="M0.257324 7.88983V3.02143C0.257324 1.97396 1.10648 1.12481 2.15395 1.12481H13.8464C14.8939 1.12481 15.743 1.97396 15.743 3.02143V10.8958L0.257324 7.88983Z" fill="#3A3379"/>
<path d="M12.8446 0.234436H6.33661C5.5318 0.234436 4.87939 0.886873 4.87939 1.69165V10.3289C4.87939 11.1337 5.53183 11.7861 6.33661 11.7861H12.8446C13.6494 11.7861 14.3019 11.1337 14.3019 10.3289V1.69165C14.3019 0.886842 13.6494 0.234436 12.8446 0.234436Z" fill="#4F96C7"/>
<path d="M10.518 2.45869H4.00995C3.20514 2.45869 2.55273 3.11112 2.55273 3.9159V12.5531C2.55273 13.358 3.20517 14.0104 4.00995 14.0104H10.518C11.3228 14.0104 11.9752 13.358 11.9752 12.5531V3.91594C11.9752 3.11112 11.3228 2.45869 10.518 2.45869Z" fill="#5DAFE7"/>
<path d="M15.743 9.00059V13.869C15.743 14.9165 14.8939 15.7656 13.8464 15.7656H2.15395C1.10648 15.7656 0.257324 14.9165 0.257324 13.869V5.99466C0.257324 4.94719 1.10648 4.09803 2.15395 4.09803H5.87448C6.51332 4.09803 7.10923 4.41962 7.45986 4.95362C8.03139 5.80234 8.66814 7.18694 9.89542 7.10394H13.8464C14.8939 7.10397 15.743 7.95309 15.743 9.00059Z" fill="#484094"/>
<path d="M3.69801 15.7655H2.15404C1.10661 15.7655 0.257324 14.9163 0.257324 13.8688V5.99466C0.257324 4.94722 1.10661 4.09794 2.15404 4.09794H3.69801C2.65057 4.09794 1.80129 4.94722 1.80129 5.99466V13.8688C1.80129 14.9162 2.65061 15.7655 3.69801 15.7655Z" fill="#443E86"/>
<path d="M10.9931 3.891C10.8788 3.83021 10.7369 3.87368 10.6761 3.98797L9.81773 5.603L9.22423 4.86434C9.1432 4.76347 8.99567 4.74734 8.89473 4.82844C8.79379 4.90953 8.77773 5.05703 8.85882 5.15794L9.67507 6.17382C9.77395 6.30413 9.99229 6.28316 10.0648 6.137L11.0901 4.20797C11.1508 4.09365 11.1074 3.95175 10.9931 3.891Z" fill="white"/>
<path d="M2.06445 8.78593H6.06217C6.19164 8.78593 6.29655 8.681 6.29655 8.55156C6.29655 8.42212 6.19164 8.31718 6.06217 8.31718H2.06445C1.93498 8.31718 1.83008 8.42212 1.83008 8.55156C1.83008 8.681 1.93502 8.78593 2.06445 8.78593Z" fill="white"/>
<path d="M2.06445 9.65315H6.06217C6.19164 9.65315 6.29655 9.54821 6.29655 9.41878C6.29655 9.28934 6.19164 9.1844 6.06217 9.1844H2.06445C1.93498 9.1844 1.83008 9.28934 1.83008 9.41878C1.83008 9.54821 1.93502 9.65315 2.06445 9.65315Z" fill="white"/>
</svg>
