<svg width="19" height="15" viewBox="0 0 19 15" fill="none" xmlns="http://www.w3.org/2000/svg">
<path d="M2.85831 14.1039L0.0937955 6.92724C-0.183673 6.20681 0.17527 5.39755 0.896098 5.11995L13.9446 0.0938184C14.665 -0.18365 15.4743 0.175293 15.7517 0.896121L18.5163 8.07283C18.7937 8.79326 18.4348 9.60252 17.714 9.88012L4.66586 14.9062C3.94504 15.1837 3.13618 14.8244 2.85831 14.1039Z" fill="#484094"/>
<path d="M16.7479 3.48173L1.10254 9.54616L2.14432 12.2505L17.7904 6.18885L16.7479 3.48173Z" fill="#3A3379"/>
<path d="M0.000488281 9.08895V1.39837C0.000488281 0.626171 0.626598 6.10352e-05 1.3988 6.10352e-05H15.3816C16.1538 6.10352e-05 16.7799 0.626171 16.7799 1.39837V9.08895C16.7799 9.86115 16.1538 10.4873 15.3816 10.4873H1.3988C0.626598 10.4873 0.000488281 9.86115 0.000488281 9.08895Z" fill="#5DAFE7"/>
<path d="M15.3811 0H13.8954L3.4082 10.4872H15.3811C16.1533 10.4872 16.7794 9.86108 16.7794 9.08888V1.39831C16.7794 0.626109 16.1533 0 15.3811 0Z" fill="#4F96C7"/>
<path d="M1.39844 5.59311H2.79675V6.29227H1.39844V5.59311Z" fill="white"/>
<path d="M1.39844 7.69058H2.79675V8.38974H1.39844V7.69058Z" fill="white"/>
<path d="M7.69092 7.69058H9.08922V8.38974H7.69092V7.69058Z" fill="white"/>
<path d="M3.49609 5.59311H4.89427V6.29227H3.49609V5.59311Z" fill="white"/>
<path d="M5.59326 5.59311H6.99158V6.29227H5.59326V5.59311Z" fill="white"/>
<path d="M7.69092 5.59311H9.08922V6.29227H7.69092V5.59311Z" fill="white"/>
<path d="M14.3325 1.39831H15.0317V2.44704H14.3325V1.39831Z" fill="white"/>
<path d="M12.9346 1.39831H13.6337V2.44704H12.9346V1.39831Z" fill="white"/>
<path d="M11.5361 1.39831H12.2353V2.44704H11.5361V1.39831Z" fill="white"/>
<path d="M10.1377 1.39831H10.8367V2.44704H10.1377V1.39831Z" fill="white"/>
<path d="M1.39844 3.63558V1.95766C1.39844 1.64862 1.64875 1.39831 1.95779 1.39831H3.63571C3.94475 1.39831 4.19493 1.64862 4.19493 1.95766V3.63558C4.19493 3.94462 3.94475 4.19493 3.63571 4.19493H1.95779C1.64875 4.19493 1.39844 3.94462 1.39844 3.63558Z" fill="#FDB62F"/>
<path d="M1.39844 2.44704H2.44717V3.1462H1.39844V2.44704Z" fill="#FD7B2F"/>
<path d="M3.146 2.44704H4.1946V3.1462H3.146V2.44704Z" fill="#FD7B2F"/>
</svg>
