<svg width="16" height="16" viewBox="0 0 16 16" fill="none" xmlns="http://www.w3.org/2000/svg">
<g clip-path="url(#clip0_251_0)">
<path d="M1.69056 2.43951C0.756875 2.43951 0 3.19638 0 4.13007V10.7292C0 11.6629 0.756875 12.4198 1.69056 12.4198H1.8505C1.99675 12.4198 2.10737 12.5521 2.08147 12.6961L1.98616 13.2253H3.79475L4.48469 12.5704C4.5865 12.4737 4.72156 12.4198 4.86194 12.4198H5.09081H10.4968C11.4305 12.4198 12.1874 11.6629 12.1874 10.7293V2.43951H1.69056Z" fill="#484094"/>
<path d="M2.67593 12.5703L1.98599 13.2253L1.66478 15.0088C1.63346 15.1827 1.84253 15.2955 1.97068 15.1739L4.7134 12.5703C4.81521 12.4736 4.95028 12.4198 5.09065 12.4198H3.05318C2.91278 12.4198 2.77774 12.4737 2.67593 12.5703Z" fill="#2D2862"/>
<path d="M12.413 2.43951H12.0661V10.7292C12.0661 11.6629 11.3091 12.4198 10.3755 12.4198H12.413C13.3466 12.4198 14.1035 11.6629 14.1035 10.7292V4.13007C14.1035 3.19638 13.3466 2.43951 12.413 2.43951Z" fill="#2D2862"/>
<path d="M9.13503 5.41053H2.41087C2.2775 5.41053 2.16943 5.30244 2.16943 5.1691C2.16943 5.03575 2.27753 4.92766 2.41087 4.92766H9.13503C9.2684 4.92766 9.37647 5.03575 9.37647 5.1691C9.37647 5.30244 9.26837 5.41053 9.13503 5.41053Z" fill="#F0F7FF"/>
<path d="M7.99709 7.62942H2.41087C2.2775 7.62942 2.16943 7.52132 2.16943 7.38798C2.16943 7.25463 2.27753 7.14653 2.41087 7.14653H7.99709C8.13047 7.14653 8.23853 7.25463 8.23853 7.38798C8.23853 7.52132 8.13047 7.62942 7.99709 7.62942Z" fill="#F0F7FF"/>
<path d="M7.9971 9.84828H2.41087C2.2775 9.84828 2.16943 9.74019 2.16943 9.60685C2.16943 9.4735 2.27753 9.36541 2.41087 9.36541H7.9971C8.13047 9.36541 8.23854 9.4735 8.23854 9.60685C8.23857 9.74019 8.13047 9.84828 7.9971 9.84828Z" fill="#F0F7FF"/>
<path d="M13.4059 2.62569H11.8906V1.53281C11.8906 1.11438 12.2298 0.775188 12.6482 0.775188C13.0667 0.775188 13.4059 1.11438 13.4059 1.53281V2.62569Z" fill="#4586B1"/>
<path d="M12.6479 8.51082C13.3806 8.51082 13.9746 7.91685 13.9746 7.18416C13.9746 6.45147 13.3806 5.8575 12.6479 5.8575C11.9153 5.8575 11.3213 6.45147 11.3213 7.18416C11.3213 7.91685 11.9153 8.51082 12.6479 8.51082Z" fill="#4586B1"/>
<path d="M12.648 5.85747C12.4393 5.85747 12.242 5.90575 12.0664 5.99156V8.37672C12.242 8.46253 12.4393 8.51081 12.648 8.51081C13.3807 8.51081 13.9746 7.91684 13.9746 7.18416C13.9746 6.45147 13.3807 5.85747 12.648 5.85747Z" fill="#386F93"/>
<path d="M14.5119 4.00354V3.71732C14.5119 2.68791 13.6774 1.85341 12.648 1.85341C11.6186 1.85341 10.7841 2.68791 10.7841 3.71732V4.00354C10.7841 5.11582 10.2804 6.16688 9.41648 6.86357C9.3812 6.89204 9.35185 6.92713 9.3312 6.96748C9.22301 7.17891 9.37657 7.43001 9.6141 7.43001H15.682C15.9195 7.43001 16.0731 7.17894 15.9649 6.96748C15.9442 6.92713 15.9149 6.89201 15.8796 6.86357C15.0157 6.16688 14.5119 5.11579 14.5119 4.00354Z" fill="#5DB0E7"/>
<path d="M15.9648 6.96747C15.9441 6.92712 15.9148 6.892 15.8795 6.86353C15.0156 6.16684 14.5119 5.11578 14.5119 4.0035V3.71728C14.5119 2.68787 13.6774 1.85337 12.648 1.85337C12.2744 1.85337 11.9269 1.96366 11.6353 2.15284C12.1473 2.48503 12.4864 3.06137 12.4864 3.71728V4.0035C12.4864 5.11578 12.9902 6.16684 13.8541 6.86353C13.8894 6.892 13.9187 6.92709 13.9394 6.96747C14.0475 7.17891 13.894 7.43 13.6564 7.43H15.6819C15.9194 7.43 16.073 7.17891 15.9648 6.96747Z" fill="#5AA6D8"/>
</g>
<defs>
<clipPath id="clip0_251_0">
<rect width="16" height="16" fill="white"/>
</clipPath>
</defs>
</svg>
