<svg width="17" height="17" viewBox="0 0 17 17" fill="none" xmlns="http://www.w3.org/2000/svg">
<g clip-path="url(#clip0_251_318)">
<path d="M13.7757 17H1.46533V1.17242H9.67223L13.7757 5.27586V17Z" fill="#484094"/>
<path d="M15.5345 15.2414H3.22412V0H11.431L15.5345 4.10345V15.2414Z" fill="#5DAFE7"/>
<path d="M11.4312 4.10345H15.5346L11.4312 0V4.10345Z" fill="#4F96C7"/>
<path d="M5.56876 12.8966H4.98256C4.82069 12.8966 4.68945 12.7653 4.68945 12.6035C4.68945 12.4416 4.82069 12.3103 4.98256 12.3103H5.56876C5.73063 12.3103 5.86187 12.4416 5.86187 12.6035C5.86187 12.7653 5.73063 12.8966 5.56876 12.8966Z" fill="white"/>
<path d="M13.7753 12.8966H6.74086C6.57899 12.8966 6.44775 12.7653 6.44775 12.6035C6.44775 12.4416 6.57899 12.3103 6.74086 12.3103H13.7753C13.9372 12.3103 14.0684 12.4416 14.0684 12.6035C14.0684 12.7653 13.9372 12.8966 13.7753 12.8966Z" fill="white"/>
<path d="M5.56876 11.1379H4.98256C4.82069 11.1379 4.68945 11.0067 4.68945 10.8448C4.68945 10.683 4.82069 10.5517 4.98256 10.5517H5.56876C5.73063 10.5517 5.86187 10.683 5.86187 10.8448C5.86187 11.0067 5.73063 11.1379 5.56876 11.1379Z" fill="white"/>
<path d="M13.7753 11.1379H6.74086C6.57899 11.1379 6.44775 11.0067 6.44775 10.8448C6.44775 10.683 6.57899 10.5517 6.74086 10.5517H13.7753C13.9372 10.5517 14.0684 10.683 14.0684 10.8448C14.0684 11.0067 13.9372 11.1379 13.7753 11.1379Z" fill="white"/>
<path d="M5.56876 9.37931H4.98256C4.82069 9.37931 4.68945 9.24808 4.68945 9.08621C4.68945 8.92435 4.82069 8.79311 4.98256 8.79311H5.56876C5.73063 8.79311 5.86187 8.92435 5.86187 9.08621C5.86187 9.24808 5.73063 9.37931 5.56876 9.37931Z" fill="white"/>
<path d="M13.7753 9.37931H6.74086C6.57899 9.37931 6.44775 9.24808 6.44775 9.08621C6.44775 8.92435 6.57899 8.79311 6.74086 8.79311H13.7753C13.9372 8.79311 14.0684 8.92435 14.0684 9.08621C14.0684 9.24808 13.9372 9.37931 13.7753 9.37931Z" fill="white"/>
<path d="M5.56876 7.62069H4.98256C4.82069 7.62069 4.68945 7.48945 4.68945 7.32759C4.68945 7.16572 4.82069 7.03448 4.98256 7.03448H5.56876C5.73063 7.03448 5.86187 7.16572 5.86187 7.32759C5.86187 7.48945 5.73063 7.62069 5.56876 7.62069Z" fill="white"/>
<path d="M13.7753 7.62069H6.74086C6.57899 7.62069 6.44775 7.48945 6.44775 7.32759C6.44775 7.16572 6.57899 7.03448 6.74086 7.03448H13.7753C13.9372 7.03448 14.0684 7.16572 14.0684 7.32759C14.0684 7.48945 13.9372 7.62069 13.7753 7.62069Z" fill="white"/>
<path d="M5.56876 5.86207H4.98256C4.82069 5.86207 4.68945 5.73083 4.68945 5.56897C4.68945 5.4071 4.82069 5.27586 4.98256 5.27586H5.56876C5.73063 5.27586 5.86187 5.4071 5.86187 5.56897C5.86187 5.73083 5.73063 5.86207 5.56876 5.86207Z" fill="white"/>
<path d="M13.7753 5.86207H6.74086C6.57899 5.86207 6.44775 5.73083 6.44775 5.56897C6.44775 5.4071 6.57899 5.27586 6.74086 5.27586H13.7753C13.9372 5.27586 14.0684 5.4071 14.0684 5.56897C14.0684 5.73083 13.9372 5.86207 13.7753 5.86207Z" fill="white"/>
<path d="M4.98242 2.63793H6.74104V4.39656H4.98242V2.63793Z" fill="white"/>
</g>
<defs>
<clipPath id="clip0_251_318">
<rect width="17" height="17" fill="white"/>
</clipPath>
</defs>
</svg>
