<svg width="17" height="17" viewBox="0 0 17 17" fill="none" xmlns="http://www.w3.org/2000/svg">
<g clip-path="url(#clip0_251_477)">
<path d="M10.0938 2.125H1.94792C0.87125 2.125 0 2.99625 0 4.07292V12.9271C0 14.0037 0.87125 14.875 1.94792 14.875H7.17542L7.33125 14.0037C7.40279 13.6071 7.58625 13.2529 7.87029 12.9625L8.79113 12.0417H2.65625C2.36583 12.0417 2.125 11.8008 2.125 11.5104C2.125 11.22 2.36583 10.9792 2.65625 10.9792H9.38542C9.51292 10.9792 9.63333 11.0287 9.72542 11.1067L12.0417 8.7975V4.07292C12.0417 2.99625 11.1704 2.125 10.0938 2.125ZM9.38542 9.73958H2.65625C2.36583 9.73958 2.125 9.49875 2.125 9.20833C2.125 8.91791 2.36583 8.67708 2.65625 8.67708H9.38542C9.67583 8.67708 9.91667 8.91791 9.91667 9.20833C9.91667 9.49875 9.67583 9.73958 9.38542 9.73958ZM9.38542 7.4375H2.65625C2.36583 7.4375 2.125 7.19666 2.125 6.90625C2.125 6.61583 2.36583 6.375 2.65625 6.375H9.38542C9.67583 6.375 9.91667 6.61583 9.91667 6.90625C9.91667 7.19666 9.67583 7.4375 9.38542 7.4375Z" fill="#8075EB"/>
<path d="M8.67676 1.41666H7.89759C7.66384 0.602076 6.91301 -7.62939e-06 6.02051 -7.62939e-06C5.12801 -7.62939e-06 4.37717 0.602076 4.14342 1.41666H3.36426C3.07384 1.41666 2.83301 1.65749 2.83301 1.94791V3.36458C2.83301 4.04458 3.39259 4.60416 4.07259 4.60416H7.96842C8.64842 4.60416 9.20801 4.04458 9.20801 3.36458V1.94791C9.20801 1.65749 8.96717 1.41666 8.67676 1.41666Z" fill="#3A3379"/>
<path d="M9.91666 6.90625C9.91666 7.19667 9.67583 7.4375 9.38541 7.4375H2.65625C2.36583 7.4375 2.125 7.19667 2.125 6.90625C2.125 6.61583 2.36583 6.375 2.65625 6.375H9.38541C9.67583 6.375 9.91666 6.61583 9.91666 6.90625Z" fill="white"/>
<path d="M9.91666 9.20834C9.91666 9.49875 9.67583 9.73959 9.38541 9.73959H2.65625C2.36583 9.73959 2.125 9.49875 2.125 9.20834C2.125 8.91792 2.36583 8.67709 2.65625 8.67709H9.38541C9.67583 8.67709 9.91666 8.91792 9.91666 9.20834Z" fill="white"/>
<path d="M9.72541 11.1067L8.79041 12.0417H2.65625C2.36583 12.0417 2.125 11.8008 2.125 11.5104C2.125 11.22 2.36583 10.9792 2.65625 10.9792H9.38541C9.51291 10.9792 9.63332 11.0287 9.72541 11.1067Z" fill="white"/>
<path d="M2.83333 2.125H1.94792C0.87125 2.125 0 2.99625 0 4.07292V12.9271C0 14.0037 0.87125 14.875 1.94792 14.875H6.02083V12.0417H2.65625C2.36583 12.0417 2.125 11.8008 2.125 11.5104C2.125 11.22 2.36583 10.9792 2.65625 10.9792H6.02083V9.73958H2.65625C2.36583 9.73958 2.125 9.49875 2.125 9.20833C2.125 8.91791 2.36583 8.67708 2.65625 8.67708H6.02083V7.4375H2.65625C2.36583 7.4375 2.125 7.19666 2.125 6.90625C2.125 6.61583 2.36583 6.375 2.65625 6.375H6.02083V4.60417H4.07292C3.39292 4.60417 2.83333 4.04458 2.83333 3.36458V2.125Z" fill="#675EC0"/>
<path d="M6.02051 -7.62939e-06C5.12801 -7.62939e-06 4.37717 0.602076 4.14342 1.41666H3.36426C3.07384 1.41666 2.83301 1.65749 2.83301 1.94791V2.12499V3.36458C2.83301 4.04458 3.39259 4.60416 4.07259 4.60416H6.02051V-7.62939e-06Z" fill="#332D6C"/>
<path d="M6.02083 6.375H2.65625C2.36583 6.375 2.125 6.61583 2.125 6.90625C2.125 7.19667 2.36583 7.4375 2.65625 7.4375H6.02083V6.375Z" fill="#DEDEDE"/>
<path d="M6.02083 8.67709H2.65625C2.36583 8.67709 2.125 8.91792 2.125 9.20834C2.125 9.49875 2.36583 9.73959 2.65625 9.73959H6.02083V8.67709Z" fill="#DEDEDE"/>
<path d="M6.02083 10.9792H2.65625C2.36583 10.9792 2.125 11.22 2.125 11.5104C2.125 11.8008 2.36583 12.0417 2.65625 12.0417H6.02083V10.9792Z" fill="#DEDEDE"/>
<path d="M8.87326 17C8.73372 17 8.59772 16.9448 8.49784 16.8442C8.3753 16.7216 8.32005 16.5474 8.35051 16.376L8.72593 14.2474C8.74434 14.1405 8.79676 14.0413 8.87326 13.9648L14.1326 8.70542C14.7786 8.05871 15.4133 8.23296 15.7604 8.58005L16.6366 9.45625C17.1204 9.94005 17.1204 10.7256 16.6366 11.2094L11.3772 16.4688C11.3007 16.546 11.2016 16.5977 11.0939 16.6168L8.96534 16.9915L8.87326 17ZM11.0018 16.0933H11.0089H11.0018Z" fill="#5DAFE7"/>
<path d="M15.0379 8.26979C14.7602 8.26979 14.4478 8.39021 14.1326 8.70542L8.87326 13.9648C8.79676 14.0413 8.74434 14.1405 8.72593 14.2474L8.35051 16.376C8.32005 16.5474 8.3753 16.7216 8.49784 16.8442C8.50351 16.8498 8.50847 16.8548 8.51414 16.8598L16.2768 9.09642L15.7597 8.57933C15.5826 8.40225 15.329 8.26979 15.0379 8.26979Z" fill="#55A0D2"/>
</g>
<defs>
<clipPath id="clip0_251_477">
<rect width="17" height="17" fill="white"/>
</clipPath>
</defs>
</svg>
