<svg width="18" height="18" viewBox="0 0 18 18" fill="none" xmlns="http://www.w3.org/2000/svg">
<path d="M3.87827 6.61754H14.2312C14.6771 6.61754 15.0387 6.97909 15.0387 7.42501V15.248H3.0708V7.42501C3.0708 6.97909 3.43221 6.61754 3.87827 6.61754Z" fill="#3A3379"/>
<path d="M14.3295 7.32657H3.77979V14.5378H14.3295V7.32657Z" fill="#5DAFE7"/>
<path d="M1.69873 15.9481H16.4101L15.0383 15.2477H3.07053L1.69873 15.9481Z" fill="#4D449F"/>
<path d="M16.4095 15.9483H1.69873V16.5711H16.4095V15.9483Z" fill="#433B8C"/>
<path d="M2.3217 17.1939H15.7872C16.1312 17.1939 16.4101 16.9151 16.4101 16.5711H1.69873C1.69873 16.9151 1.97759 17.1939 2.3217 17.1939Z" fill="#3A3379"/>
<path d="M10.0944 15.9483H8.01416V16.5711H10.0944V15.9483Z" fill="#262153"/>
<path d="M10.9554 10.8631C11.7082 10.8631 12.3184 10.2529 12.3184 9.50007C12.3184 8.74726 11.7082 8.13699 10.9554 8.13699C10.2026 8.13699 9.59229 8.74726 9.59229 9.50007C9.59229 10.2529 10.2026 10.8631 10.9554 10.8631Z" fill="#6E62E4"/>
<path d="M10.9551 10.6681C10.3112 10.6681 9.78711 10.1441 9.78711 9.50006C9.78711 8.856 10.3111 8.33203 10.9551 8.33203C11.5992 8.33203 12.1232 8.856 12.1232 9.50006C12.1232 10.1441 11.5992 10.6681 10.9551 10.6681ZM10.9551 8.53805C10.4247 8.53805 9.99312 8.96963 9.99312 9.50006C9.99312 10.0305 10.4247 10.4621 10.9551 10.4621C11.4856 10.4621 11.9172 10.0305 11.9172 9.50006C11.9173 8.96963 11.4857 8.53805 10.9551 8.53805Z" fill="#5C52B9"/>
<path d="M10.9177 10.2063V10.082C10.7621 10.0661 10.6224 10.0042 10.4985 9.89634L10.6228 9.74812C10.7183 9.83109 10.8166 9.88045 10.9176 9.89634V9.56573C10.7892 9.53507 10.6953 9.49471 10.6356 9.44479C10.576 9.39487 10.5461 9.32062 10.5461 9.22246C10.5461 9.12417 10.5805 9.04387 10.6491 8.98129C10.7179 8.91885 10.8073 8.88482 10.9176 8.87906V8.79384H11.0267V8.88074C11.1516 8.88989 11.2699 8.93249 11.3811 9.00857L11.2703 9.16537C11.1953 9.11193 11.1141 9.07903 11.0266 9.06651V9.38685H11.0316C11.1623 9.41751 11.2582 9.45899 11.3196 9.51117C11.381 9.56348 11.4116 9.63928 11.4116 9.7387C11.4116 9.83812 11.3765 9.91912 11.306 9.98156C11.2356 10.0441 11.1425 10.0782 11.0266 10.0838V10.2064H10.9177V10.2063ZM10.7976 9.10645C10.7687 9.1319 10.7542 9.16382 10.7542 9.20179C10.7542 9.2399 10.7654 9.26999 10.7882 9.29207C10.811 9.31429 10.854 9.33553 10.9177 9.35606V9.06131C10.8667 9.06581 10.8266 9.08085 10.7976 9.10645ZM11.1564 9.85359C11.1882 9.82757 11.2041 9.79453 11.2041 9.75473C11.2041 9.71493 11.1915 9.68343 11.1665 9.66023C11.1415 9.63703 11.0949 9.61509 11.0269 9.5947V9.9014C11.0813 9.89564 11.1245 9.87975 11.1564 9.85359Z" fill="#5C52B9"/>
<path d="M13.1614 8.55549C13.9142 8.55549 14.5245 7.94521 14.5245 7.19241C14.5245 6.4396 13.9142 5.82933 13.1614 5.82933C12.4086 5.82933 11.7983 6.4396 11.7983 7.19241C11.7983 7.94521 12.4086 8.55549 13.1614 8.55549Z" fill="#6E62E4"/>
<path d="M12.3366 8.0183C11.8813 7.56296 11.8813 6.82186 12.3366 6.36652C12.792 5.91117 13.5331 5.91117 13.9884 6.36652C14.4437 6.82186 14.4437 7.56296 13.9884 8.0183C13.5329 8.47379 12.792 8.47365 12.3366 8.0183ZM13.8427 6.51221C13.4677 6.13716 12.8574 6.13716 12.4822 6.51221C12.107 6.88725 12.1071 7.49757 12.4822 7.87276C12.8572 8.2478 13.4675 8.2478 13.8427 7.87276C14.2179 7.49757 14.2178 6.88725 13.8427 6.51221Z" fill="#5C52B9"/>
<path d="M12.6368 7.66533L12.7247 7.57744C12.6258 7.45622 12.5708 7.31363 12.5596 7.1498L12.7524 7.13293C12.7612 7.25907 12.7958 7.36341 12.856 7.44624L13.0897 7.21252C13.0205 7.10002 12.9827 7.0051 12.9758 6.92761C12.9691 6.85013 13.0003 6.77658 13.0698 6.70711C13.1392 6.63764 13.2204 6.60516 13.3132 6.60952C13.406 6.61388 13.4933 6.65311 13.5752 6.72708L13.6354 6.66689L13.7124 6.74396L13.651 6.80541C13.7328 6.90019 13.7862 7.01382 13.8111 7.14643L13.622 7.17891C13.6068 7.08821 13.5726 7.00749 13.5196 6.93675L13.2931 7.1633L13.2967 7.16696C13.3673 7.281 13.4059 7.37818 13.4123 7.45847C13.4188 7.53877 13.3867 7.61415 13.3166 7.68432C13.2462 7.75463 13.1641 7.78697 13.0702 7.78135C12.9761 7.77572 12.8862 7.73396 12.8003 7.65605L12.7136 7.74282L12.6368 7.66533ZM13.3295 6.80274C13.291 6.80035 13.2582 6.81258 13.2313 6.83944C13.2045 6.8663 13.1911 6.89569 13.1915 6.92733C13.192 6.95911 13.2074 7.00468 13.2379 7.06416L13.4464 6.85575C13.4071 6.82285 13.3682 6.80513 13.3295 6.80274ZM13.0549 7.58475C13.0958 7.58883 13.1304 7.57674 13.1585 7.54861C13.1866 7.52049 13.2 7.48941 13.1989 7.45524C13.1977 7.42107 13.1801 7.37269 13.1464 7.31011L12.9296 7.52696C12.9722 7.56141 13.0139 7.58068 13.0549 7.58475Z" fill="#5C52B9"/>
<path d="M12.3123 5.33095C13.0651 5.33095 13.6754 4.72068 13.6754 3.96788C13.6754 3.21507 13.0651 2.6048 12.3123 2.6048C11.5595 2.6048 10.9492 3.21507 10.9492 3.96788C10.9492 4.72068 11.5595 5.33095 12.3123 5.33095Z" fill="#6E62E4"/>
<path d="M13.1383 4.79419C12.683 5.24954 11.9419 5.24954 11.4865 4.79419C11.0312 4.33885 11.0312 3.59776 11.4865 3.14241C11.9419 2.68707 12.683 2.68707 13.1383 3.14241C13.5936 3.5979 13.5936 4.33885 13.1383 4.79419ZM11.6321 3.2881C11.257 3.66315 11.257 4.27346 11.6321 4.64865C12.0071 5.02369 12.6174 5.02369 12.9926 4.64865C13.3677 4.2736 13.3677 3.66329 12.9926 3.2881C12.6176 2.91291 12.0073 2.91291 11.6321 3.2881Z" fill="#5C52B9"/>
<path d="M12.7857 4.49424L12.6978 4.40635C12.5764 4.50521 12.434 4.5602 12.2702 4.57145L12.2533 4.37865C12.3794 4.36979 12.4838 4.3352 12.5666 4.27501L12.3329 4.04129C12.2204 4.11048 12.1255 4.14831 12.048 4.1552C11.9705 4.16195 11.8969 4.13073 11.8275 4.06126C11.758 3.99179 11.7255 3.91065 11.7299 3.81784C11.7342 3.72503 11.7735 3.6377 11.8474 3.55585L11.7873 3.49567L11.8643 3.4186L11.9258 3.48006C12.0206 3.39821 12.1342 3.34478 12.2668 3.31989L12.2993 3.50903C12.2086 3.52421 12.1278 3.55839 12.0571 3.6114L12.2837 3.83795L12.2873 3.83429C12.4014 3.7637 12.4985 3.72517 12.5788 3.7187C12.6591 3.71223 12.7345 3.74429 12.8047 3.81446C12.875 3.88478 12.9073 3.9669 12.9017 4.06084C12.8961 4.15492 12.8543 4.24478 12.7764 4.3307L12.8632 4.41746L12.7857 4.49424ZM11.923 3.80153C11.9206 3.84006 11.9328 3.87282 11.9597 3.89968C11.9865 3.92654 12.0159 3.9399 12.0476 3.93948C12.0793 3.93906 12.1249 3.92359 12.1844 3.89307L11.976 3.68467C11.9431 3.7239 11.9255 3.76285 11.923 3.80153ZM12.705 4.07617C12.7091 4.03524 12.697 4.00065 12.6688 3.97253C12.6407 3.9444 12.6096 3.93104 12.5755 3.93217C12.5413 3.93329 12.4929 3.95087 12.4303 3.98462L12.6472 4.20146C12.6816 4.15885 12.7009 4.11709 12.705 4.07617Z" fill="#5C52B9"/>
<path d="M10.5615 13.3397H6.91834C6.81456 13.3397 6.73047 13.4238 6.73047 13.5276C6.73047 13.6313 6.81456 13.7154 6.91834 13.7154H10.5615C10.6653 13.7154 10.7494 13.6313 10.7494 13.5276C10.7494 13.4238 10.6653 13.3397 10.5615 13.3397Z" fill="#4D5BA5"/>
<path d="M8.73708 2.16V7.71511C8.73708 7.98118 8.52094 8.19732 8.25488 8.19732H5.52224C5.25618 8.19732 5.04004 7.98118 5.04004 7.71511V2.16L5.28107 2.40104L5.51043 2.17027L5.73979 2.40104L5.96915 2.17027L6.19992 2.40104L6.42928 2.17027L6.65864 2.40104L6.888 2.17027L7.11876 2.40104L7.34812 2.17027L7.57748 2.40104L7.80684 2.17027L8.03761 2.40104L8.26697 2.17027L8.49633 2.40104L8.73708 2.16Z" fill="#85A6D3"/>
<path d="M6.48666 4.01949C6.22018 4.01949 6.00432 4.23549 6.00432 4.50183V7.71455C6.00432 7.98089 5.78888 8.19689 5.52197 8.19689H9.54596C9.81244 8.19689 10.0283 7.98089 10.0283 7.71455V4.01949H6.48666Z" fill="#A2C3EF"/>
<path d="M10.0278 4.01935H6.48633C6.75323 4.01935 6.96867 4.23549 6.96867 4.50169V13.5276H10.5102V4.50169C10.5102 4.23535 10.2942 4.01935 10.0278 4.01935Z" fill="#FDFEFF"/>
<path d="M10.1563 5.0625H7.32275V5.27527H10.1563V5.0625Z" fill="#A7D0FC"/>
<path d="M10.1563 5.57394H7.32275V5.78671H10.1563V5.57394Z" fill="#A7D0FC"/>
<path d="M9.19068 6.08569H7.32275V6.29846H9.19068V6.08569Z" fill="#A7D0FC"/>
<path d="M8.56307 12.5291H7.32275V12.9552H8.56307V12.5291Z" fill="#A7D0FC"/>
<path d="M8.56307 11.6348H7.32275V12.0608H8.56307V11.6348Z" fill="#A7D0FC"/>
<path d="M10.1563 11.7697H8.91602V12.9546H10.1563V11.7697Z" fill="#A7D0FC"/>
<path d="M10.1563 7.05881H7.32275V7.27157H10.1563V7.05881Z" fill="#A7D0FC"/>
<path d="M10.1563 7.57491H7.32275V7.78767H10.1563V7.57491Z" fill="#A7D0FC"/>
<path d="M10.1563 8.091H7.32275V8.30377H10.1563V8.091Z" fill="#A7D0FC"/>
<path d="M10.1563 8.60709H7.32275V8.81985H10.1563V8.60709Z" fill="#A7D0FC"/>
<path d="M9.34747 9.12459H7.32275V9.33735H9.34747V9.12459Z" fill="#A7D0FC"/>
</svg>
