<svg width="16" height="16" viewBox="0 0 16 16" fill="none" xmlns="http://www.w3.org/2000/svg">
<g clip-path="url(#clip0_328_116)">
<path d="M13.7869 15.3561V2.03635C13.7869 1.68075 13.4986 1.39247 13.143 1.39247H2.76546C2.40986 1.39247 2.12158 1.68075 2.12158 2.03635V15.3561C2.12158 15.7117 2.40986 16 2.76546 16H13.143C13.4986 16 13.7869 15.7117 13.7869 15.3561Z" fill="#4D449F"/>
<path d="M12.8211 14.8732V2.51925C12.8211 2.43034 12.749 2.35828 12.6601 2.35828H3.24837C3.15946 2.35828 3.0874 2.43034 3.0874 2.51925V14.8732C3.0874 14.9622 3.15946 15.0342 3.24837 15.0342H12.6601C12.749 15.0342 12.8211 14.9621 12.8211 14.8732Z" fill="#E7ECF6"/>
<path d="M6.44425 6.99372H4.48103C4.30678 6.99372 4.16553 6.85247 4.16553 6.67822V4.71501C4.16553 4.54076 4.30678 4.39951 4.48103 4.39951H6.44425C6.6185 4.39951 6.75975 4.54076 6.75975 4.71501V6.67822C6.75975 6.85247 6.6185 6.99372 6.44425 6.99372Z" fill="#5DAFE7"/>
<path d="M6.44425 10.5527H4.48103C4.30678 10.5527 4.16553 10.4115 4.16553 10.2372V8.27401C4.16553 8.09976 4.30678 7.95851 4.48103 7.95851H6.44425C6.6185 7.95851 6.75975 8.09976 6.75975 8.27401V10.2372C6.75975 10.4115 6.6185 10.5527 6.44425 10.5527Z" fill="#5DAFE7"/>
<path d="M6.44425 14.1117H4.48103C4.30678 14.1117 4.16553 13.9705 4.16553 13.7962V11.833C4.16553 11.6587 4.30678 11.5175 4.48103 11.5175H6.44425C6.6185 11.5175 6.75975 11.6587 6.75975 11.833V13.7962C6.75975 13.9705 6.6185 14.1117 6.44425 14.1117Z" fill="#5DAFE7"/>
<path d="M11.8606 5.90081H7.67552C7.54214 5.90081 7.43408 5.79272 7.43408 5.65938C7.43408 5.52603 7.54218 5.41794 7.67552 5.41794H11.8606C11.994 5.41794 12.1021 5.52603 12.1021 5.65938C12.1021 5.79272 11.994 5.90081 11.8606 5.90081Z" fill="#FDFEFF"/>
<path d="M4.97333 6.15212L4.76339 5.72781C4.70423 5.60828 4.75317 5.46346 4.8727 5.40431C4.99223 5.34518 5.13708 5.39412 5.19617 5.51362L5.25989 5.64237L5.77817 5.14365C5.87423 5.05121 6.02708 5.05412 6.11958 5.15021C6.21205 5.24631 6.20911 5.39915 6.11301 5.49162L5.35717 6.219C5.23948 6.33231 5.04558 6.29825 4.97333 6.15212Z" fill="white"/>
<path d="M11.8606 9.4598H7.67552C7.54214 9.4598 7.43408 9.35171 7.43408 9.21837C7.43408 9.08502 7.54218 8.97693 7.67552 8.97693H11.8606C11.994 8.97693 12.1021 9.08502 12.1021 9.21837C12.1021 9.35168 11.994 9.4598 11.8606 9.4598Z" fill="#FDFEFF"/>
<path d="M4.97333 9.71113L4.76339 9.28684C4.70423 9.16734 4.75317 9.0225 4.8727 8.96334C4.99223 8.90422 5.13708 8.95316 5.19617 9.07266L5.25989 9.20141L5.77817 8.70269C5.87423 8.61025 6.02708 8.61315 6.11958 8.70925C6.21205 8.80534 6.20911 8.95819 6.11301 9.05066L5.35717 9.77803C5.23948 9.89128 5.04558 9.85728 4.97333 9.71113Z" fill="white"/>
<path d="M11.8606 13.0188H7.67552C7.54214 13.0188 7.43408 12.9107 7.43408 12.7773C7.43408 12.644 7.54218 12.5359 7.67552 12.5359H11.8606C11.994 12.5359 12.1021 12.644 12.1021 12.7773C12.1021 12.9107 11.994 13.0188 11.8606 13.0188Z" fill="#FDFEFF"/>
<path d="M4.97333 13.2701L4.76339 12.8458C4.70423 12.7263 4.75317 12.5815 4.8727 12.5223C4.99223 12.4632 5.13708 12.5122 5.19617 12.6317L5.25989 12.7604L5.77817 12.2617C5.87423 12.1693 6.02708 12.1722 6.11958 12.2683C6.21205 12.3644 6.20911 12.5172 6.11301 12.6097L5.35717 13.3371C5.23948 13.4503 5.04558 13.4162 4.97333 13.2701Z" fill="white"/>
<path d="M13.2344 1.39247H12.2686C12.6241 1.39247 12.9124 1.68075 12.9124 2.03635V15.3561C12.9124 15.7117 12.6241 16 12.2686 16H13.2344C13.59 16 13.8782 15.7117 13.8782 15.3561V2.03635C13.8782 1.68075 13.59 1.39247 13.2344 1.39247Z" fill="#3A3379"/>
<path d="M12.7517 2.35828H11.9385C12.0274 2.35828 12.0994 2.43034 12.0994 2.51925V14.8732C12.0994 14.9622 12.0274 15.0342 11.9385 15.0342H12.7517C12.8406 15.0342 12.9127 14.9622 12.9127 14.8732V2.51925C12.9127 2.43034 12.8406 2.35828 12.7517 2.35828Z" fill="#D8E2F1"/>
<path d="M8.67018 0H7.23849C6.85893 0 6.55127 0.307687 6.55127 0.687219V1.96378H9.35739V0.687219C9.35739 0.307687 9.04971 0 8.67018 0Z" fill="#5F55C2"/>
<path d="M8.86631 0H7.93994C8.31947 0 8.62716 0.307687 8.62716 0.687219V1.96378H9.44846V0.582156C9.44846 0.260656 9.18784 0 8.86631 0V0Z" fill="#5147B3"/>
<path d="M11.0668 3.18728V1.27162C11.0668 1.11159 10.9371 0.981873 10.7771 0.981873H5.13106C4.97103 0.981873 4.84131 1.11159 4.84131 1.27162V3.18728C4.84131 3.34728 4.97103 3.47703 5.13106 3.47703H10.7771C10.9371 3.47703 11.0668 3.34728 11.0668 3.18728Z" fill="#6E62E4"/>
<path d="M10.8682 0.981903H10.0469C10.2069 0.981903 10.3366 1.11162 10.3366 1.27165V3.18731C10.3366 3.34731 10.2069 3.47706 10.0469 3.47706H10.8682C11.0282 3.47706 11.1579 3.34734 11.1579 3.18731V1.27162C11.1579 1.11159 11.0282 0.981903 10.8682 0.981903Z" fill="#5147B3"/>
</g>
<defs>
<clipPath id="clip0_328_116">
<rect width="16" height="16" fill="white"/>
</clipPath>
</defs>
</svg>
