<svg width="17" height="17" viewBox="0 0 17 17" fill="none" xmlns="http://www.w3.org/2000/svg">
<path d="M4.51562 11.9531L9.06907 11.7122C9.20812 11.7052 9.34528 11.7467 9.45712 11.8296C9.56897 11.9126 9.64857 12.0317 9.68233 12.1668C9.70148 12.2434 9.70535 12.323 9.69373 12.4011C9.68211 12.4792 9.65523 12.5542 9.61461 12.6219C9.57399 12.6896 9.52044 12.7486 9.457 12.7956C9.39357 12.8426 9.3215 12.8767 9.24491 12.8958L7.78487 13.2608L9.82812 14.0781L15.2934 12.6524C15.48 12.6036 15.6782 12.6282 15.8473 12.721C16.0164 12.8138 16.1436 12.9678 16.2026 13.1515C16.2617 13.3351 16.2482 13.5344 16.165 13.7084C16.0817 13.8824 15.9349 14.0179 15.7549 14.0871L9.5625 16.4687L5.04688 15.4063L3.1875 15.6719H0.796875V11.9531H4.51562Z" fill="#F0C6A4"/>
<path d="M0.796875 16.2031H3.1875L3.1875 11.4219H0.796875L0.796875 16.2031Z" fill="#484094"/>
<path d="M12.75 11.6875C14.217 11.6875 15.4062 10.4983 15.4062 9.03125C15.4062 7.56424 14.217 6.375 12.75 6.375C11.283 6.375 10.0938 7.56424 10.0938 9.03125C10.0938 10.4983 11.283 11.6875 12.75 11.6875Z" fill="#8075EB"/>
<path d="M12.75 8.23438H13.2812C13.3517 8.23438 13.4193 8.20639 13.4691 8.15658C13.5189 8.10676 13.5469 8.0392 13.5469 7.96875C13.5469 7.8983 13.5189 7.83074 13.4691 7.78092C13.4193 7.73111 13.3517 7.70312 13.2812 7.70312H13.0156V7.4375C13.0156 7.36705 12.9876 7.29949 12.9378 7.24967C12.888 7.19986 12.8204 7.17188 12.75 7.17188C12.6796 7.17188 12.612 7.19986 12.5622 7.24967C12.5124 7.29949 12.4844 7.36705 12.4844 7.4375V7.74881C12.3072 7.81153 12.1579 7.93483 12.0629 8.09695C11.9678 8.25906 11.9331 8.44955 11.9649 8.63476C11.9967 8.81998 12.0929 8.988 12.2366 9.10916C12.3802 9.23031 12.5621 9.2968 12.75 9.29688C12.8204 9.29688 12.888 9.32486 12.9378 9.37467C12.9876 9.42449 13.0156 9.49205 13.0156 9.5625C13.0156 9.63295 12.9876 9.70051 12.9378 9.75033C12.888 9.80014 12.8204 9.82812 12.75 9.82812H12.2188C12.1483 9.82812 12.0807 9.85611 12.0309 9.90592C11.9811 9.95574 11.9531 10.0233 11.9531 10.0938C11.9531 10.1642 11.9811 10.2318 12.0309 10.2816C12.0807 10.3314 12.1483 10.3594 12.2188 10.3594H12.4844V10.625C12.4844 10.6954 12.5124 10.763 12.5622 10.8128C12.612 10.8626 12.6796 10.8906 12.75 10.8906C12.8204 10.8906 12.888 10.8626 12.9378 10.8128C12.9876 10.763 13.0156 10.6954 13.0156 10.625V10.3137C13.1928 10.251 13.3421 10.1277 13.4371 9.96555C13.5322 9.80344 13.5669 9.61295 13.5351 9.42774C13.5033 9.24252 13.4071 9.0745 13.2634 8.95334C13.1198 8.83219 12.9379 8.7657 12.75 8.76562C12.6796 8.76562 12.612 8.73764 12.5622 8.68783C12.5124 8.63801 12.4844 8.57045 12.4844 8.5C12.4844 8.42955 12.5124 8.36199 12.5622 8.31217C12.612 8.26236 12.6796 8.23438 12.75 8.23438Z" fill="#3A3379"/>
<path d="M1.74777 11.1562L3.29754 9.29688H5.3125C5.34738 9.29688 5.38193 9.29001 5.41415 9.27666C5.44638 9.26331 5.47567 9.24375 5.50033 9.21908L9.40688 5.3125H11.6875C11.7224 5.3125 11.7569 5.30563 11.7892 5.29228C11.8214 5.27894 11.8507 5.25937 11.8753 5.2347L15.6719 1.43816V2.39062C15.6719 2.46107 15.6999 2.52864 15.7497 2.57845C15.7995 2.62826 15.8671 2.65625 15.9375 2.65625C16.008 2.65625 16.0755 2.62826 16.1253 2.57845C16.1751 2.52864 16.2031 2.46107 16.2031 2.39062V0.796875C16.2031 0.726427 16.1751 0.658864 16.1253 0.60905C16.0755 0.559235 16.008 0.53125 15.9375 0.53125H14.3438C14.2733 0.53125 14.2057 0.559235 14.1559 0.60905C14.1061 0.658864 14.0781 0.726427 14.0781 0.796875C14.0781 0.867323 14.1061 0.934886 14.1559 0.9847C14.2057 1.03451 14.2733 1.0625 14.3438 1.0625H15.2962L11.5775 4.78125H9.29688C9.262 4.78125 9.22745 4.78812 9.19523 4.80147C9.163 4.81481 9.13371 4.83438 9.10905 4.85905L5.2025 8.76562H3.1875C3.15262 8.76562 3.11808 8.77249 3.08585 8.78584C3.05362 8.79919 3.02434 8.81875 2.99967 8.84342L0.783778 11.4219H1.53094L1.74777 11.1562Z" fill="#3A3379"/>
</svg>
