<svg width="17" height="18" viewBox="0 0 17 18" fill="none" xmlns="http://www.w3.org/2000/svg">
<path d="M10.8259 12.2691C14.2052 12.2691 16.9447 9.52258 16.9447 6.13455C16.9447 2.74653 14.2052 0 10.8259 0C7.44653 0 4.70703 2.74653 4.70703 6.13455C4.70703 9.52258 7.44653 12.2691 10.8259 12.2691Z" fill="#8075EB"/>
<path d="M10.8259 0C10.5808 0 10.3392 0.0148711 10.1016 0.0429961C13.1394 0.402258 15.4961 2.99229 15.4961 6.13455C15.4961 9.27682 13.1394 11.8669 10.1016 12.2261C10.3391 12.2542 10.5808 12.2691 10.8259 12.2691C14.2053 12.2691 16.9448 9.52256 16.9448 6.13455C16.9448 2.74655 14.2053 0 10.8259 0Z" fill="#6C61D5"/>
<path d="M12.631 3.50567C12.507 3.42147 12.338 3.4537 12.2538 3.57788L8.99004 8.38616C8.90577 8.51026 8.93808 8.67922 9.06222 8.76346C9.10894 8.79517 9.16199 8.81039 9.21451 8.81039C9.30149 8.81039 9.38696 8.76866 9.43948 8.69128L12.7032 3.883C12.7875 3.75886 12.7552 3.5899 12.631 3.50567Z" fill="white"/>
<path d="M12.6143 6.29019C12.049 6.29019 11.5891 6.85543 11.5891 7.55026C11.5891 8.24509 12.049 8.81033 12.6143 8.81033C13.1795 8.81033 13.6395 8.24509 13.6395 7.55026C13.6395 6.85543 13.1796 6.29019 12.6143 6.29019ZM12.6143 8.26706C12.3531 8.26706 12.1324 7.93881 12.1324 7.55026C12.1324 7.16171 12.3531 6.83346 12.6143 6.83346C12.8755 6.83346 13.0962 7.16171 13.0962 7.55026C13.0962 7.93881 12.8755 8.26706 12.6143 8.26706Z" fill="white"/>
<path d="M10.0628 4.71884C10.0628 4.02401 9.60289 3.45877 9.03764 3.45877C8.47237 3.45877 8.01245 4.02401 8.01245 4.71884C8.01245 5.41367 8.47233 5.97891 9.03764 5.97891C9.60289 5.97891 10.0628 5.41367 10.0628 4.71884ZM8.55572 4.71884C8.55572 4.33029 8.77643 4.00204 9.03764 4.00204C9.29886 4.00204 9.51953 4.33029 9.51953 4.71884C9.51953 5.10739 9.29886 5.43564 9.03764 5.43564C8.77643 5.43564 8.55572 5.10742 8.55572 4.71884Z" fill="white"/>
<path d="M4.31283 17.2302C4.31283 17.6553 3.34737 18 2.15641 18C0.965461 18 0 17.6553 0 17.2302C0 17.0005 0 16.0025 0 16.0025H4.31286C4.31283 16.0025 4.31283 16.805 4.31283 17.2302Z" fill="#3A3379"/>
<path d="M2.86422 16.0025V17.2302C2.86422 17.5646 2.2667 17.8491 1.43213 17.9554C1.65857 17.9842 1.90231 18 2.15649 18C3.34744 18 4.3129 17.6553 4.3129 17.2302C4.3129 16.805 4.3129 16.0025 4.3129 16.0025H2.86422Z" fill="#221E4D"/>
<path d="M4.31283 16.0025C4.31283 16.4277 3.34737 16.7723 2.15641 16.7723C0.965461 16.7723 0 16.4277 0 16.0025C0 15.7729 0 14.7749 0 14.7749H4.31286C4.31283 14.7748 4.31283 15.5773 4.31283 16.0025Z" fill="#484094"/>
<path d="M2.86422 14.7748V16.0025C2.86422 16.3369 2.2667 16.6214 1.43213 16.7277C1.65857 16.7565 1.90231 16.7723 2.15649 16.7723C3.34744 16.7723 4.3129 16.4276 4.3129 16.0025C4.3129 15.5774 4.3129 14.7748 4.3129 14.7748H2.86422Z" fill="#2D2862"/>
<path d="M4.31283 14.7748C4.31283 15.2 3.34737 15.5447 2.15641 15.5447C0.965461 15.5447 0 15.2 0 14.7748C0 14.5452 0 13.5472 0 13.5472H4.31286C4.31283 13.5472 4.31283 14.3497 4.31283 14.7748Z" fill="#3A3379"/>
<path d="M2.86422 13.5472V14.7748C2.86422 15.1092 2.2667 15.3938 1.43213 15.5C1.65857 15.5288 1.90231 15.5447 2.15649 15.5447C3.34744 15.5447 4.3129 15.2 4.3129 14.7748C4.3129 14.3497 4.3129 13.5472 4.3129 13.5472H2.86422Z" fill="#221E4D"/>
<path d="M4.31283 13.5472C4.31283 13.9723 3.34737 14.317 2.15641 14.317C0.965461 14.317 0 13.9723 0 13.5472C0 13.3175 0 12.3195 0 12.3195H4.31286C4.31283 12.3195 4.31283 13.122 4.31283 13.5472Z" fill="#484094"/>
<path d="M2.86422 12.3195V13.5471C2.86422 13.8816 2.2667 14.1661 1.43213 14.2723C1.65857 14.3011 1.90231 14.317 2.15649 14.317C3.34744 14.317 4.3129 13.9723 4.3129 13.5471C4.3129 13.122 4.3129 12.3195 4.3129 12.3195H2.86422Z" fill="#2D2862"/>
<path d="M2.15641 13.0893C3.34737 13.0893 4.31283 12.7446 4.31283 12.3195C4.31283 11.8943 3.34737 11.5497 2.15641 11.5497C0.96546 11.5497 0 11.8943 0 12.3195C0 12.7446 0.96546 13.0893 2.15641 13.0893Z" fill="#3A3379"/>
<path d="M8.62558 17.2302C8.62558 17.6553 7.66011 18 6.46916 18C5.27821 18 4.31274 17.6553 4.31274 17.2302C4.31274 17.0005 4.31274 16.0025 4.31274 16.0025H8.62558V17.2302Z" fill="#484094"/>
<path d="M7.17696 16.0025V17.2302C7.17696 17.5646 6.57945 17.8491 5.74487 17.9554C5.97131 17.9842 6.21505 18 6.46923 18C7.66018 18 8.62564 17.6553 8.62564 17.2302C8.62564 16.805 8.62564 16.0025 8.62564 16.0025H7.17696Z" fill="#2D2862"/>
<path d="M8.62558 16.0025C8.62558 16.4277 7.66011 16.7723 6.46916 16.7723C5.27821 16.7723 4.31274 16.4277 4.31274 16.0025C4.31274 15.7729 4.31274 14.7749 4.31274 14.7749H8.62558C8.62558 14.7748 8.62558 15.5773 8.62558 16.0025Z" fill="#3A3379"/>
<path d="M7.17696 14.7748V16.0025C7.17696 16.3369 6.57945 16.6214 5.74487 16.7277C5.97131 16.7565 6.21505 16.7723 6.46923 16.7723C7.66018 16.7723 8.62564 16.4276 8.62564 16.0025C8.62564 15.5774 8.62564 14.7748 8.62564 14.7748H7.17696Z" fill="#221E4D"/>
<path d="M8.62558 14.7748C8.62558 15.2 7.66011 15.5447 6.46916 15.5447C5.27821 15.5447 4.31274 15.2 4.31274 14.7748C4.31274 14.5452 4.31274 13.5472 4.31274 13.5472H8.62558V14.7748Z" fill="#484094"/>
<path d="M7.17696 13.5472V14.7748C7.17696 15.1092 6.57945 15.3938 5.74487 15.5C5.97131 15.5288 6.21505 15.5447 6.46923 15.5447C7.66018 15.5447 8.62564 15.2 8.62564 14.7748C8.62564 14.3497 8.62564 13.5472 8.62564 13.5472H7.17696Z" fill="#2D2862"/>
<path d="M8.62558 13.5472C8.62558 13.9723 7.66011 14.317 6.46916 14.317C5.27821 14.317 4.31274 13.9723 4.31274 13.5472C4.31274 13.3175 4.31274 12.3195 4.31274 12.3195H8.62558C8.62558 12.3195 8.62558 13.122 8.62558 13.5472Z" fill="#3A3379"/>
<path d="M7.17696 12.3195V13.5471C7.17696 13.8816 6.57945 14.1661 5.74487 14.2723C5.97131 14.3011 6.21505 14.317 6.46923 14.317C7.66018 14.317 8.62564 13.9723 8.62564 13.5471C8.62564 13.122 8.62564 12.3195 8.62564 12.3195H7.17696Z" fill="#221E4D"/>
<path d="M8.62558 12.3C8.62558 12.7252 7.66011 13.0698 6.46916 13.0698C5.27821 13.0698 4.31274 12.7252 4.31274 12.3C4.31274 12.0703 4.31274 11.0724 4.31274 11.0724H8.62558C8.62558 11.0723 8.62558 11.8748 8.62558 12.3Z" fill="#484094"/>
<path d="M7.17696 11.0723V12.3C7.17696 12.6344 6.57945 12.9189 5.74487 13.0252C5.97131 13.054 6.21505 13.0698 6.46923 13.0698C7.66018 13.0698 8.62564 12.7251 8.62564 12.3C8.62564 11.8748 8.62564 11.0723 8.62564 11.0723H7.17696Z" fill="#2D2862"/>
<path d="M8.62558 11.0529C8.62558 11.478 7.66011 11.8227 6.46916 11.8227C5.27821 11.8227 4.31274 11.478 4.31274 11.0529C4.31274 10.8232 4.31274 9.8252 4.31274 9.8252H8.62558C8.62558 9.82516 8.62558 10.6277 8.62558 11.0529Z" fill="#3A3379"/>
<path d="M7.17696 9.82513V11.0528C7.17696 11.3872 6.57945 11.6717 5.74487 11.778C5.97131 11.8068 6.21505 11.8226 6.46923 11.8226C7.66018 11.8226 8.62564 11.4779 8.62564 11.0528C8.62564 10.6276 8.62564 9.82513 8.62564 9.82513H7.17696Z" fill="#221E4D"/>
<path d="M6.46916 10.595C7.66011 10.595 8.62557 10.2503 8.62557 9.82514C8.62557 9.39999 7.66011 9.05533 6.46916 9.05533C5.2782 9.05533 4.31274 9.39999 4.31274 9.82514C4.31274 10.2503 5.2782 10.595 6.46916 10.595Z" fill="#484094"/>
<path d="M12.9386 16.0025V17.2302C12.9386 17.2302 11.9731 18 10.7821 18C9.59119 18 8.62573 17.6553 8.62573 17.2302C8.62573 17.0005 8.62573 16.0025 8.62573 16.0025H12.9386Z" fill="#3A3379"/>
<path d="M11.4897 16.0025V17.2302C11.4897 17.5646 10.8922 17.8491 10.0576 17.9554C10.2841 17.9842 10.5278 18 10.782 18C11.9729 18 12.9384 17.6553 12.9384 17.2302C12.9384 16.805 12.9384 16.0025 12.9384 16.0025H11.4897Z" fill="#221E4D"/>
<path d="M12.9383 16.0025C12.9383 16.4277 11.9729 16.7723 10.7819 16.7723C9.59095 16.7723 8.62549 16.4277 8.62549 16.0025C8.62549 15.7729 8.62549 14.7749 8.62549 14.7749H12.9384C12.9383 14.7748 12.9383 15.5773 12.9383 16.0025Z" fill="#484094"/>
<path d="M11.4897 14.7748V16.0025C11.4897 16.3369 10.8922 16.6214 10.0576 16.7277C10.2841 16.7565 10.5278 16.7723 10.782 16.7723C11.9729 16.7723 12.9384 16.4276 12.9384 16.0025C12.9384 15.5774 12.9384 14.7748 12.9384 14.7748H11.4897Z" fill="#2D2862"/>
<path d="M10.7821 15.5446C11.9731 15.5446 12.9386 15.2 12.9386 14.7748C12.9386 14.3497 11.9731 14.005 10.7821 14.005C9.59119 14.005 8.62573 14.3497 8.62573 14.7748C8.62573 15.2 9.59119 15.5446 10.7821 15.5446Z" fill="#3A3379"/>
</svg>
