<svg width="19" height="17" viewBox="0 0 19 17" fill="none" xmlns="http://www.w3.org/2000/svg">
<path d="M5.23756 0.00125755C2.40806 0.0618329 0.0921744 2.3527 0.00274807 5.18139C-0.0416969 6.58669 0.455627 7.87525 1.3015 8.85419C1.68246 9.29503 1.7912 9.90933 1.59522 10.458L1.24295 11.4443C1.12839 11.7651 1.49993 12.0394 1.77273 11.8353L3.02213 10.9009C3.3939 10.6229 3.86597 10.5195 4.32146 10.6092C4.79575 10.7026 5.29239 10.7335 5.80316 10.6913C8.49043 10.4689 10.6097 8.24652 10.7063 5.55174C10.817 2.46531 8.31434 -0.0646052 5.23756 0.00125755Z" fill="#484094"/>
<path d="M17.4255 13.7809C16.9723 14.3278 16.8286 15.0669 17.0671 15.7355L17.2365 16.2099C17.4255 16.8247 17.1646 17.1649 16.5591 16.9201L15.507 16.1342C15.063 15.8031 14.5017 15.6718 13.9572 15.7731C13.6061 15.8388 13.213 15.8968 12.9275 15.8968C9.70273 15.8968 7.08887 13.2829 7.08887 10.0581C7.08848 6.83658 9.70553 4.2195 12.9275 4.2195C16.1519 4.2195 18.7662 6.83336 18.7662 10.0581C18.7662 11.473 18.2626 12.7705 17.4255 13.7809Z" fill="#8075EB"/>
<path d="M13.7521 13.2879C13.7521 13.7297 13.375 14.1176 12.9332 14.1176C12.4591 14.1176 12.1035 13.7297 12.1035 13.2879C12.1035 12.8353 12.4591 12.4582 12.9332 12.4582C13.375 12.4582 13.7521 12.8353 13.7521 13.2879ZM13.5474 11.2406C13.5474 11.5747 13.181 11.7147 12.9224 11.7147C12.5776 11.7147 12.2867 11.5747 12.2867 11.2406C12.2867 9.95836 12.1359 8.11581 12.1359 6.8335C12.1359 6.41326 12.4807 6.17621 12.9225 6.17621C13.3427 6.17621 13.6983 6.41322 13.6983 6.8335C13.6982 8.11577 13.5474 9.95832 13.5474 11.2406Z" fill="#F9EED7"/>
<path d="M6.27408 5.14625C5.73059 5.57116 5.72063 5.86768 5.72063 6.38155C5.72063 6.56937 5.62181 6.78669 5.13755 6.78669C4.73242 6.78669 4.59406 6.63849 4.59406 6.12458C4.59406 5.27468 4.96962 4.8695 5.25618 4.62245C5.58231 4.34574 6.13573 4.03938 6.13573 3.50573C6.13573 3.05117 5.74044 2.8337 5.24629 2.8337C4.23831 2.8337 4.45567 3.59466 3.92206 3.59466C3.65524 3.59466 3.3291 3.41681 3.3291 3.03132C3.3291 2.49771 3.94183 1.70709 5.27599 1.70709C6.54094 1.70709 7.38092 2.40875 7.38092 3.33769C7.38092 4.26662 6.54094 4.9387 6.27408 5.14625ZM5.90845 8.22958C5.90845 8.63472 5.57239 8.99051 5.14748 8.99051C4.72257 8.99051 4.3964 8.63472 4.3964 8.22958C4.3964 7.81452 4.73245 7.46861 5.14748 7.46861C5.5625 7.46861 5.90845 7.81452 5.90845 8.22958Z" fill="#F9EED7"/>
</svg>
