<svg width="18" height="18" viewBox="0 0 18 18" fill="none" xmlns="http://www.w3.org/2000/svg">
<g clip-path="url(#clip0_251_349)">
<path d="M12.7123 6.9526H10.9303V4.42803C10.9303 3.9126 10.7294 3.42761 10.3646 3.06247C10.0002 2.69837 9.51518 2.49751 8.99972 2.49751C7.9352 2.49751 7.06916 3.36355 7.06916 4.42806V6.95263H5.28711V4.42806C5.28711 2.38095 6.9526 0.715462 8.99972 0.715462C9.99081 0.715462 10.923 1.10144 11.6247 1.80239C12.3263 2.50472 12.7123 3.43696 12.7123 4.42806V6.9526Z" fill="#332D6C"/>
<path d="M9.54548 0.754903C7.75447 1.01818 6.375 2.56515 6.375 4.42796V6.9526H5.28711V4.42796C5.28711 2.38092 6.95267 0.715359 8.99971 0.715359C9.1843 0.715359 9.36632 0.728778 9.54548 0.754903Z" fill="#2D285F"/>
<path d="M13.6037 6.86652V14.3452C13.6037 14.6586 13.3499 14.9123 13.0366 14.9123H4.96395C4.65059 14.9123 4.39648 14.6586 4.39648 14.3452V6.86652C4.39648 6.55316 4.65059 6.29905 4.96395 6.29905H13.0366C13.3499 6.29905 13.6037 6.55316 13.6037 6.86652Z" fill="#5DAFE7"/>
<path d="M9.92528 12.795H8.07444C7.97147 12.795 7.89167 12.7058 7.90291 12.6035L8.18208 10.1201C8.18771 10.0698 8.17522 10.0195 8.14778 9.97692C8.03582 9.80329 7.97547 9.59301 7.98885 9.36763C8.01887 8.86216 8.42969 8.45002 8.93512 8.41865C9.52399 8.38207 10.0127 8.8485 10.0127 9.42945C10.0127 9.63131 9.95358 9.8191 9.85205 9.97674C9.8246 10.0194 9.81197 10.0698 9.81764 10.1201L10.0968 12.6035C10.108 12.7058 10.0282 12.795 9.92528 12.795Z" fill="#332D6C"/>
<path d="M6.02536 14.9123H4.96395C4.65059 14.9123 4.39648 14.6586 4.39648 14.3452V6.86652C4.39648 6.55316 4.65059 6.29905 4.96395 6.29905H6.02536C5.70701 6.29905 5.44861 6.55744 5.44861 6.87579V14.336C5.44861 14.6543 5.70701 14.9123 6.02536 14.9123Z" fill="#4F96C7"/>
<path d="M18 12.5308V16.421C18 16.8978 17.6131 17.2846 17.136 17.2846H0.863686C0.386517 17.2846 0 16.8978 0 16.421V12.5308C0 12.0536 0.386517 11.6668 0.863686 11.6668H17.136C17.6131 11.6668 18 12.0536 18 12.5308Z" fill="#8075EB"/>
<path d="M1.92973 17.2846H0.863686C0.386517 17.2846 0 16.8978 0 16.421V12.5308C0 12.0536 0.386517 11.6668 0.863686 11.6668H1.92973C1.44507 11.6668 1.05177 12.0597 1.05177 12.5447V16.407C1.05177 16.8921 1.44507 17.2846 1.92973 17.2846Z" fill="#484094"/>
<path d="M4.04864 15.0572L3.28895 14.6186L4.04864 14.1799C4.17666 14.106 4.22052 13.9423 4.14661 13.8143C4.07266 13.6863 3.90895 13.6424 3.78097 13.7163L3.02128 14.155V13.2778C3.02128 13.13 2.90144 13.0101 2.75361 13.0101C2.60578 13.0101 2.48594 13.13 2.48594 13.2778V14.155L1.72625 13.7164C1.59823 13.6424 1.43452 13.6863 1.36061 13.8143C1.2867 13.9424 1.33056 14.1061 1.45858 14.18L2.21827 14.6186L1.45858 15.0572C1.33056 15.1311 1.2867 15.2948 1.36061 15.4229C1.41018 15.5087 1.50016 15.5567 1.59267 15.5567C1.63806 15.5567 1.6841 15.5452 1.72625 15.5208L2.48594 15.0822V15.9594C2.48594 16.1072 2.60578 16.2271 2.75361 16.2271C2.90144 16.2271 3.02128 16.1072 3.02128 15.9594V15.0822L3.78097 15.5208C3.82312 15.5452 3.86916 15.5567 3.91455 15.5567C4.00706 15.5567 4.09703 15.5087 4.14661 15.4229C4.22055 15.2948 4.17666 15.1311 4.04864 15.0572Z" fill="#484094"/>
<path d="M12.3689 15.0572L11.6093 14.6186L12.3689 14.1799C12.497 14.106 12.5408 13.9423 12.4669 13.8143C12.393 13.6863 12.2293 13.6424 12.1013 13.7163L11.3416 14.1549V13.2777C11.3416 13.1299 11.2217 13.0101 11.0739 13.0101C10.9261 13.0101 10.8062 13.1299 10.8062 13.2777V14.1549L10.0466 13.7163C9.91854 13.6424 9.75484 13.6862 9.68092 13.8143C9.60701 13.9423 9.65087 14.106 9.77889 14.1799L10.5386 14.6186L9.77889 15.0572C9.65087 15.1311 9.60701 15.2948 9.68092 15.4228C9.7305 15.5087 9.82047 15.5567 9.91298 15.5567C9.95837 15.5567 10.0044 15.5451 10.0466 15.5208L10.8062 15.0822V15.9594C10.8062 16.1072 10.9261 16.2271 11.0739 16.2271C11.2217 16.2271 11.3416 16.1072 11.3416 15.9594V15.0822L12.1013 15.5208C12.1434 15.5451 12.1895 15.5567 12.2349 15.5567C12.3274 15.5567 12.4173 15.5087 12.4669 15.4228C12.5409 15.2948 12.497 15.1311 12.3689 15.0572Z" fill="#484094"/>
<path d="M8.20831 15.0572L7.44862 14.6186L8.20831 14.1799C8.33633 14.106 8.38019 13.9423 8.30628 13.8143C8.23237 13.6863 8.06866 13.6424 7.94064 13.7163L7.18095 14.1549V13.2777C7.18095 13.1299 7.06111 13.0101 6.91328 13.0101C6.76545 13.0101 6.64561 13.1299 6.64561 13.2777V14.1549L5.88592 13.7163C5.7579 13.6424 5.59419 13.6862 5.52028 13.8143C5.44637 13.9423 5.49023 14.106 5.61825 14.1799L6.37794 14.6186L5.61825 15.0572C5.49023 15.1311 5.44637 15.2948 5.52028 15.4228C5.56985 15.5087 5.65983 15.5567 5.75233 15.5567C5.79773 15.5567 5.84377 15.5451 5.88592 15.5208L6.64561 15.0822V15.9594C6.64561 16.1072 6.76545 16.2271 6.91328 16.2271C7.06111 16.2271 7.18095 16.1072 7.18095 15.9594V15.0822L7.94064 15.5208C7.98279 15.5451 8.02883 15.5567 8.07423 15.5567C8.16673 15.5567 8.25671 15.5087 8.30628 15.4228C8.38019 15.2948 8.33633 15.1311 8.20831 15.0572Z" fill="#484094"/>
<path d="M16.4181 14.9676L15.6768 14.5396L16.4181 14.1116C16.5461 14.0377 16.59 13.874 16.5161 13.746C16.4421 13.6179 16.2785 13.5741 16.1505 13.648L15.4092 14.076V13.22C15.4092 13.0722 15.2893 12.9524 15.1415 12.9524C14.9937 12.9524 14.8738 13.0722 14.8738 13.22V14.076L14.1325 13.6481C14.0045 13.5741 13.8408 13.618 13.7669 13.746C13.6929 13.874 13.7368 14.0377 13.8648 14.1117L14.6061 14.5396L13.8648 14.9676C13.7368 15.0415 13.6929 15.2053 13.7669 15.3333C13.8164 15.4191 13.9064 15.4671 13.9989 15.4671C14.0443 15.4671 14.0904 15.4556 14.1325 15.4312L14.8738 15.0033V15.8593C14.8738 16.0071 14.9937 16.1269 15.1415 16.1269C15.2893 16.1269 15.4092 16.0071 15.4092 15.8593V15.0033L16.1505 15.4313C16.1926 15.4556 16.2386 15.4672 16.284 15.4672C16.3766 15.4672 16.4665 15.4191 16.5161 15.3333C16.59 15.2052 16.5462 15.0415 16.4181 14.9676Z" fill="#484094"/>
</g>
<defs>
<clipPath id="clip0_251_349">
<rect width="18" height="18" fill="white"/>
</clipPath>
</defs>
</svg>
