<svg width="17" height="17" viewBox="0 0 17 17" fill="none" xmlns="http://www.w3.org/2000/svg">
<g clip-path="url(#clip0_269_38)">
<path d="M2.64276 13.4804H1.4407C0.975082 13.4804 0.597656 13.8579 0.597656 14.3235V16.1569C0.597656 16.6225 0.975082 17 1.4407 17H2.64276C3.10838 17 3.48581 16.6225 3.48581 16.1569V14.3235C3.48581 13.858 3.10838 13.4804 2.64276 13.4804Z" fill="#589CE0"/>
<path d="M2.24419 17H1.4407C0.975082 17 0.597656 16.6225 0.597656 16.1569V14.3235C0.597656 13.8579 0.975082 13.4804 1.4407 13.4804H2.24419C1.77857 13.4804 1.40115 13.8579 1.40115 14.3235V16.1569C1.40115 16.6225 1.77857 17 2.24419 17Z" fill="#357FBC"/>
<path d="M6.95868 11.4373H5.75662C5.29113 11.4373 4.91357 11.8147 4.91357 12.2803V16.1569C4.91357 16.6226 5.291 17 5.75662 17H6.95868C7.4243 17 7.80173 16.6226 7.80173 16.1569V12.2803C7.80173 11.8147 7.4243 11.4373 6.95868 11.4373Z" fill="#5DAFE7"/>
<path d="M6.56011 17H5.75688C5.29126 17 4.91357 16.6226 4.91357 16.1569V12.2803C4.91357 11.8147 5.29126 11.4373 5.75688 11.4373H6.56011C6.09449 11.4373 5.71706 11.8147 5.71706 12.2803V16.1569C5.71706 16.6226 6.09449 17 6.56011 17Z" fill="#4F96C7"/>
<path d="M11.2741 8.93526H10.0721C9.60656 8.93526 9.229 9.31268 9.229 9.7783V16.1569C9.229 16.6226 9.60643 17 10.0721 17H11.2741C11.7397 17 12.1172 16.6226 12.1172 16.1569V9.7783C12.1172 9.31268 11.7397 8.93526 11.2741 8.93526Z" fill="#6E5DE7"/>
<path d="M15.5904 4.56503H14.3885C13.9228 4.56503 13.5454 4.94246 13.5454 5.40808V16.157C13.5454 16.6226 13.9228 17 14.3885 17H15.5904C16.056 17 16.4334 16.6226 16.4334 16.157V5.40808C16.4334 4.94246 16.056 4.56503 15.5904 4.56503Z" fill="#484094"/>
<path d="M10.8755 17H10.0721C9.60643 17 9.229 16.6226 9.229 16.1569V9.77818C9.229 9.31255 9.60643 8.93526 10.0721 8.93526H10.8755C10.4099 8.93526 10.0325 9.31255 10.0325 9.77818V16.1569C10.0325 16.6226 10.4099 17 10.8755 17Z" fill="#5B4CC4"/>
<path d="M15.1915 17H14.3884C13.9227 17 13.5449 16.6226 13.5449 16.157V5.40808C13.5449 4.94246 13.9227 4.56503 14.3884 4.56503H15.1915C14.7258 4.56503 14.3484 4.94246 14.3484 5.40808V16.157C14.3484 16.6226 14.7258 17 15.1915 17Z" fill="#3B347B"/>
<path d="M2.37718 9.13695C8.52106 7.92919 12.1705 2.49425 12.1705 2.49425L12.8795 3.20319L13.5621 0L10.3589 0.630081L11.1466 1.41775C7.89098 4.20084 2.21973 4.98864 2.21973 4.98864L4.32579 6.50119L2.37718 9.13695Z" fill="#5DAFE7"/>
</g>
<defs>
<clipPath id="clip0_269_38">
<rect width="17" height="17" fill="white"/>
</clipPath>
</defs>
</svg>
