<svg width="17" height="17" viewBox="0 0 17 17" fill="none" xmlns="http://www.w3.org/2000/svg">
<g clip-path="url(#clip0_251_443)">
<path d="M11.12 7.44952C11.1163 7.44131 11.1125 7.43311 11.1087 7.42491C10.8372 6.83981 10.7049 6.19975 10.7046 5.55471L10.7041 4.20125C10.7041 2.27335 9.44641 0.639455 7.70683 0.0745697C5.7515 0.445747 4.27296 2.16344 4.27296 4.22675L4.27243 5.54542C4.27217 6.17388 4.1433 6.79751 3.87874 7.36757C3.87506 7.37554 3.87137 7.38354 3.86772 7.39151C3.28381 8.66966 4.09187 10.1673 5.48402 10.3587C5.61912 10.3772 5.75711 10.3868 5.89733 10.3868H9.9003C11.0518 9.97036 11.6549 8.62026 11.12 7.44952Z" fill="#8075EB"/>
<path d="M5.24156 4.31618H6.06526V6.25438H5.24156C4.70623 6.25438 4.27233 5.82035 4.27246 5.28501C4.27259 4.74991 4.70643 4.31618 5.24156 4.31618Z" fill="#FFCBBE"/>
<path d="M13.1318 7.39155C13.1282 7.38354 13.1245 7.37558 13.1208 7.36757C12.8562 6.79751 12.7274 6.17389 12.7271 5.54542L12.7266 4.22676C12.7266 1.89238 10.8342 0 8.49979 0C8.10726 0 7.72732 0.0537226 7.3667 0.15383C9.1508 0.649121 10.4604 2.28491 10.4604 4.22676L10.4609 5.54542C10.4612 6.17389 10.59 6.79751 10.8546 7.36757C10.8582 7.37554 10.8619 7.38354 10.8656 7.39155C11.4495 8.6697 10.6414 10.1674 9.24928 10.3587C9.11418 10.3772 8.97619 10.3868 8.83597 10.3868H11.1022C11.2424 10.3868 11.3804 10.3772 11.5155 10.3587C12.9077 10.1674 13.7157 8.66973 13.1318 7.39155Z" fill="#6158BB"/>
<path d="M8.49994 12.1634C9.50091 12.1634 10.3956 11.7111 10.9924 11.0001C11.1948 10.759 11.0609 10.3885 10.7517 10.329C10.3624 10.254 10.0809 9.9133 10.0809 9.51679V7.24513H6.9189V9.51682C6.9189 9.91334 6.6375 10.2541 6.24813 10.329C5.93894 10.3885 5.80503 10.759 6.00744 11.0001C6.60423 11.7111 7.49896 12.1634 8.49994 12.1634Z" fill="#FFCBBE"/>
<path d="M5.42627 12.5736V16.7012L5.7064 17H11.2938L11.5739 16.7012V12.5736C11.5739 12.2858 11.5498 11.9994 11.5032 11.7172C11.1253 11.4377 10.7058 11.2085 10.2536 11.0408C9.79508 11.4711 9.17856 11.735 8.50005 11.735C7.50319 11.735 6.63985 11.1659 6.21541 10.3352L5.89835 10.3963C5.58787 11.0794 5.42627 11.8216 5.42627 12.5736Z" fill="#F9F6F9"/>
<path d="M10.8015 10.3712L10.7844 10.3353C10.6138 10.6692 10.3722 10.9606 10.0796 11.19C10.4945 11.3362 10.8816 11.5359 11.2339 11.78C11.1591 11.2932 11.0141 10.8184 10.8015 10.3712Z" fill="#DDDAEC"/>
<path d="M1.40967 15.2941V16.1897C1.40967 16.6372 1.77248 17 2.22002 17H3.48088V16.8722H3.99397V17H5.70619V12.6116C5.70619 11.8189 5.89176 11.0371 6.24806 10.329L5.37133 10.4977C3.07168 10.9401 1.40967 12.9524 1.40967 15.2941Z" fill="#484094"/>
<path d="M11.1826 11.4988C11.2558 11.8441 11.2935 12.197 11.2935 12.5522V17H13.0057V16.8722H13.5188V17H13.5624V15.8001C13.5624 14.01 12.6278 12.4055 11.1826 11.4988Z" fill="#484094"/>
<path d="M11.6285 10.4977L11.6104 10.4942L10.7847 10.3353L10.8017 10.3712C11.0143 10.8184 11.1593 11.2932 11.2342 11.78C12.5186 12.6699 13.3384 14.1517 13.3384 15.7962V16.8722H13.519V17H14.7798C15.2274 17 15.5902 16.6372 15.5902 16.1897V15.2943C15.5902 12.9525 13.9281 10.9402 11.6285 10.4977Z" fill="#3A3379"/>
<path d="M3.99401 16.9913V15.4603C3.99401 15.3186 3.87916 15.2038 3.73748 15.2038C3.59581 15.2038 3.48096 15.3186 3.48096 15.4603V16.9913C3.48096 16.9942 3.48129 16.9971 3.48139 17H3.99358C3.99365 16.9971 3.99401 16.9943 3.99401 16.9913Z" fill="#221E4C"/>
<path d="M13.2619 15.2038C13.1202 15.2038 13.0054 15.3186 13.0054 15.4603V17H13.5185V15.4603C13.5184 15.3186 13.4036 15.2038 13.2619 15.2038Z" fill="#221E4C"/>
<path d="M10.9917 6.58004H12.0287C12.4687 6.58004 12.8254 6.22333 12.8254 5.78333V4.78727C12.8254 4.34726 12.4687 3.99052 12.0287 3.99052H10.9917V6.58004Z" fill="#365E7D"/>
<path d="M11.0551 7.30406C10.8198 6.75219 10.7049 6.15563 10.7047 5.55472L10.7041 4.20126C10.7041 3.67728 10.6111 3.17509 10.4409 2.71011C10.2953 2.65901 10.1389 2.63092 9.97579 2.63092C9.59953 2.63092 9.23901 2.78186 8.97498 3.04994C8.67097 3.3586 8.25587 3.53239 7.82267 3.53239H6.55736C6.03919 3.53239 5.61914 3.95244 5.61914 4.47061V6.01774C5.64288 7.58885 6.92309 8.85531 8.49984 8.85531C9.61115 8.85531 10.5745 8.22568 11.0551 7.30406Z" fill="#FFDDCE"/>
<path d="M11.3806 4.03565C11.3806 3.31982 10.8451 2.72947 10.1528 2.64241C10.3509 3.13176 10.4605 3.66639 10.4605 4.22676L10.4611 5.54542C10.4613 6.17389 10.5901 6.79751 10.8547 7.36758C10.8584 7.37554 10.8621 7.38355 10.8657 7.39155C10.8869 7.43777 10.9059 7.48432 10.9234 7.53107C11.2051 7.09342 11.3722 6.57495 11.3806 6.01774V4.03565Z" fill="#FFCBBE"/>
<path d="M12.0289 6.58003H11.7518V7.34466C11.7518 7.54657 11.5875 7.71083 11.3856 7.71083H10.3931C10.2555 7.71083 10.144 7.82229 10.144 7.95985C10.144 8.09741 10.2555 8.20887 10.3931 8.20887H11.3856C11.8621 8.20887 12.2498 7.82119 12.2498 7.34466V6.54875C12.1796 6.56897 12.1056 6.58003 12.0289 6.58003Z" fill="#F9F6F9"/>
<path d="M10.1625 8.49758H9.38437C9.0874 8.49758 8.84668 8.25686 8.84668 7.95989C8.84668 7.66292 9.0874 7.4222 9.38437 7.4222H10.1625C10.4594 7.4222 10.7001 7.66292 10.7001 7.95989C10.7001 8.25682 10.4594 8.49758 10.1625 8.49758Z" fill="#475959"/>
</g>
<defs>
<clipPath id="clip0_251_443">
<rect width="17" height="17" fill="white"/>
</clipPath>
</defs>
</svg>
