<?xml version="1.0" standalone="no"?>
<!DOCTYPE svg PUBLIC "-//W3C//DTD SVG 20010904//EN"
 "http://www.w3.org/TR/2001/REC-SVG-20010904/DTD/svg10.dtd">
<svg version="1.0" xmlns="http://www.w3.org/2000/svg"
 width="12px" height="12px" viewBox="0 0 980.000000 962.000000"
 preserveAspectRatio="xMidYMid meet">

<g transform="translate(0.000000,962.000000) scale(0.100000,-0.100000)"
fill="#000000" stroke="none">
<path d="M4665 9604 c-22 -2 -112 -11 -200 -19 -931 -90 -1792 -416 -2512
-953 -200 -149 -360 -288 -548 -477 -368 -368 -638 -732 -873 -1180 -23 -42
-21 -123 3 -164 36 -61 88 -94 155 -99 48 -4 66 0 95 17 20 12 40 19 45 16 4
-3 36 41 71 98 452 741 1066 1358 1751 1761 617 362 1384 585 2018 586 l155 0
47 35 c123 91 123 263 0 349 -35 25 -53 30 -105 32 -34 1 -80 0 -102 -2z"/>
<path d="M5708 9520 c-76 -41 -127 -138 -112 -218 14 -77 57 -133 131 -171 13
-6 78 -23 145 -36 458 -94 883 -247 1253 -454 916 -512 1610 -1391 1994 -2524
134 -397 229 -805 260 -1121 7 -73 14 -95 37 -129 39 -55 102 -87 172 -87 67
0 113 21 156 72 64 74 65 136 15 527 -201 1562 -1014 2789 -2359 3560 -424
243 -887 429 -1389 557 -192 48 -248 53 -303 24z"/>
<path d="M4635 8863 c-104 -7 -385 -45 -510 -69 -202 -39 -431 -99 -646 -170
-257 -84 -297 -112 -307 -212 -6 -65 11 -114 53 -151 65 -57 98 -58 269 -12
783 213 1618 264 2302 141 519 -94 985 -292 1362 -579 43 -32 145 -119 227
-193 339 -306 626 -690 846 -1131 222 -448 350 -915 390 -1422 11 -142 8 -440
-7 -721 -6 -98 -4 -114 14 -150 39 -75 102 -114 187 -114 67 0 110 17 149 58
23 25 33 29 47 21 18 -9 19 -2 19 173 0 620 -104 1333 -275 1883 -171 553
-401 977 -717 1326 -86 95 -386 363 -537 478 -603 463 -1371 762 -2150 836
-140 14 -566 18 -716 8z"/>
<path d="M2660 8253 c-28 -11 -284 -185 -380 -258 -608 -466 -1053 -1142
-1285 -1950 -191 -665 -246 -1511 -135 -2080 56 -286 64 -382 65 -730 0 -207
-5 -359 -13 -430 -19 -159 -72 -417 -89 -437 -30 -34 -44 -108 -32 -167 22
-106 139 -185 239 -162 99 22 133 63 188 226 88 263 115 464 115 855 1 402
-33 755 -117 1230 -13 74 -27 176 -30 225 -8 111 8 457 29 643 103 885 462
1651 1049 2237 171 170 311 286 479 395 102 67 118 81 142 128 23 43 27 62 23
106 -6 71 -42 126 -100 155 -42 20 -114 27 -148 14z"/>
<path d="M4720 8094 c-720 -52 -1384 -318 -1969 -788 -166 -134 -453 -423
-576 -581 -328 -420 -523 -996 -576 -1695 -7 -93 -9 -261 -6 -420 4 -256 6
-271 41 -438 77 -369 102 -636 93 -997 -8 -339 -43 -601 -122 -915 -42 -167
-130 -424 -158 -462 -30 -40 -36 -151 -12 -199 24 -48 54 -78 99 -101 38 -19
64 -20 195 -6 32 4 100 107 181 273 245 504 326 1195 229 1975 -22 181 -32
228 -78 400 -141 525 -119 1137 61 1700 68 211 266 539 483 797 109 130 326
339 452 436 562 429 1283 648 2058 623 110 -3 252 -13 315 -21 186 -26 283
-29 316 -12 90 47 126 144 89 234 -33 78 -74 101 -234 133 -208 40 -398 60
-616 64 -115 2 -235 2 -265 0z"/>
<path d="M6377 7655 c-50 -17 -76 -41 -98 -90 -24 -52 -24 -86 2 -146 18 -42
31 -55 83 -85 207 -122 432 -299 626 -493 490 -491 775 -1078 840 -1731 67
-675 99 -1903 70 -2670 -11 -282 -37 -742 -45 -775 -11 -50 -16 -312 -7 -336
17 -42 73 -100 117 -120 114 -52 253 15 284 135 5 22 17 185 26 361 64 1338
41 2627 -66 3540 -27 235 -90 464 -211 765 -189 469 -421 833 -722 1136 -216
217 -443 373 -682 469 -130 52 -167 58 -217 40z"/>
<path d="M4635 7319 c-304 -25 -734 -163 -1048 -336 -591 -326 -1011 -878
-1192 -1565 -42 -162 -73 -338 -81 -467 -6 -94 -6 -99 40 -241 115 -365 161
-664 160 -1065 0 -263 -10 -380 -50 -603 -28 -152 -23 -194 28 -256 46 -56 99
-79 174 -74 80 5 131 37 164 104 13 27 29 61 36 75 23 45 61 220 74 338 18
161 8 541 -20 751 -29 227 -81 496 -142 743 l-51 208 27 139 c153 803 611
1396 1299 1684 140 59 239 89 417 125 232 47 295 55 475 54 423 -1 806 -127
1210 -398 220 -148 457 -361 536 -482 64 -97 217 -112 307 -29 58 52 80 163
48 240 -17 40 -297 324 -422 428 -447 369 -985 583 -1584 628 -152 11 -258 11
-405 -1z"/>
<path d="M4795 6523 c-106 -13 -231 -38 -332 -67 -65 -18 -130 -36 -145 -40
-37 -9 -98 -63 -114 -103 -18 -41 -18 -115 0 -156 25 -61 111 -117 179 -117
10 0 68 13 130 30 155 41 297 60 462 60 380 0 691 -122 935 -370 114 -115 199
-237 280 -405 125 -256 174 -434 195 -700 74 -961 26 -2105 -126 -3010 -77
-461 -211 -1018 -260 -1085 -34 -46 -38 -142 -7 -195 35 -60 89 -87 164 -83
77 5 125 37 147 100 41 121 183 757 256 1154 301 1627 302 2981 3 3854 -50
146 -81 218 -148 352 -52 100 -63 114 -187 235 -311 300 -663 482 -1044 537
-100 14 -306 19 -388 9z"/>
<path d="M318 6330 c-21 -11 -50 -36 -65 -55 -15 -19 -33 -35 -39 -35 -6 0
-29 -83 -53 -192 -236 -1095 -210 -2035 74 -2655 26 -58 43 -83 55 -83 11 0
20 -10 24 -24 17 -70 104 -126 193 -126 72 0 125 28 168 88 44 64 42 148 -8
301 -21 62 -53 177 -73 255 -186 754 -183 1527 7 2146 59 189 55 253 -20 333
-62 68 -183 89 -263 47z"/>
<path d="M3589 5911 c-50 -32 -141 -125 -186 -191 -80 -117 -156 -306 -194
-483 -39 -176 -50 -291 -56 -548 -8 -358 14 -621 82 -969 46 -242 58 -370 58
-625 0 -433 -76 -874 -235 -1363 -95 -294 -243 -646 -358 -852 -27 -47 -26
-128 0 -180 39 -77 147 -119 233 -91 56 19 97 69 174 212 328 615 540 1460
593 2359 l11 185 -40 165 c-87 359 -129 653 -138 965 -6 247 5 403 42 591 45
221 121 410 218 540 74 98 81 182 20 254 -57 68 -147 81 -224 31z"/>
<path d="M4690 5725 c-283 -51 -455 -177 -579 -422 -95 -189 -139 -423 -148
-773 -8 -326 13 -557 91 -1000 64 -367 62 -814 -4 -1230 -95 -594 -326 -1259
-630 -1810 -39 -70 -41 -79 -38 -142 4 -82 39 -139 108 -176 93 -49 224 -12
271 78 148 283 288 606 374 865 211 629 308 1291 292 1990 -8 362 -37 637
-102 981 -40 212 -49 308 -49 504 -1 198 10 281 51 415 40 127 89 211 173 296
119 120 256 179 415 179 387 0 619 -341 700 -1030 34 -287 30 -779 -9 -1154
-19 -175 -1 -233 84 -276 100 -51 221 1 249 108 15 55 31 355 31 564 0 476
-61 1145 -120 1316 -136 393 -393 643 -735 713 -108 22 -312 24 -425 4z"/>
<path d="M7038 5670 c-78 -42 -125 -135 -112 -222 4 -24 22 -96 40 -160 92
-325 165 -821 194 -1322 13 -227 13 -844 0 -1091 -30 -579 -95 -1153 -194
-1735 -26 -150 -40 -205 -60 -240 -70 -123 2 -271 140 -286 40 -5 58 -1 98 20
27 14 53 23 57 20 18 -11 114 345 168 626 173 898 213 1984 116 3135 -36 422
-124 1113 -145 1137 -6 7 -23 32 -39 54 -55 78 -178 108 -263 64z"/>
<path d="M4809 4997 c-100 -53 -132 -158 -98 -325 50 -250 96 -562 126 -867
14 -142 17 -272 17 -620 0 -395 -2 -459 -22 -624 -39 -319 -86 -541 -165 -786
-23 -71 -42 -139 -42 -150 -1 -11 -5 -41 -9 -66 -11 -65 7 -122 56 -175 93
-101 247 -90 319 23 16 26 29 55 29 65 0 10 4 18 10 18 31 0 136 522 179 895
40 341 46 472 46 920 -1 562 -29 915 -115 1424 l-29 174 -42 43 c-24 24 -57
50 -75 59 -49 23 -133 19 -185 -8z"/>
<path d="M8865 3643 c-68 -36 -114 -103 -117 -171 -1 -20 4 -122 10 -227 14
-233 14 -551 0 -705 -14 -156 -12 -192 11 -237 38 -75 101 -113 186 -113 70 0
115 20 160 73 41 48 52 93 65 272 20 278 6 956 -20 988 -6 7 -23 31 -39 53
-38 54 -100 84 -172 84 -30 -1 -67 -8 -84 -17z"/>
<path d="M5710 2564 c-86 -37 -100 -70 -122 -289 -66 -667 -203 -1231 -397
-1640 -32 -66 -75 -147 -96 -180 -38 -59 -65 -106 -92 -155 -30 -57 -9 -175
40 -228 58 -63 170 -81 248 -42 36 19 99 90 99 113 0 6 20 45 45 87 214 366
393 1085 496 1997 22 196 22 203 5 242 -23 49 -50 75 -98 96 -46 19 -83 19
-128 -1z"/>
<path d="M2468 2210 c-50 -27 -87 -85 -132 -210 -76 -207 -187 -443 -334 -712
-45 -81 -86 -164 -92 -186 -23 -86 27 -190 111 -232 51 -27 137 -27 189 0 34
18 90 75 90 94 0 3 45 98 99 209 101 206 178 388 271 645 74 206 80 249 39
322 -47 83 -156 114 -241 70z"/>
<path d="M4508 1008 c-31 -18 -57 -58 -179 -277 -182 -328 -195 -350 -221
-384 -34 -42 -36 -139 -6 -192 30 -52 89 -85 151 -85 54 0 120 29 137 60 6 11
36 48 67 83 126 141 209 283 270 465 61 183 48 277 -45 330 -52 29 -124 29
-174 0z"/>
</g>
</svg>
