<svg width="21" height="21" viewBox="0 0 21 21" fill="none" xmlns="http://www.w3.org/2000/svg">
<path d="M20.4226 11.3437H13.1445C12.8264 11.3437 12.5671 11.603 12.5671 11.921C12.5671 12.083 12.636 12.2289 12.7433 12.3342L17.8682 17.459C17.9735 17.5725 18.1255 17.6435 18.2917 17.6435C18.4921 17.6435 18.6683 17.5421 18.7717 17.3882C20.0316 15.9256 20.8419 14.0681 20.9878 12.0243C20.9959 11.9899 20.9999 11.9554 20.9999 11.9209C21 11.603 20.7427 11.3437 20.4226 11.3437Z" fill="#6E62E4" fill-opacity="1"/>
<path d="M10.9466 0.881195C10.6285 0.88314 10.3713 1.14048 10.3713 1.45849V9.5469C10.3713 9.86698 10.6285 10.1263 10.9466 10.1263H19.0371C19.3552 10.1263 19.6144 9.86698 19.6144 9.5469C19.3287 4.89205 15.6035 1.16686 10.9466 0.881195Z" fill="#6E62E4" fill-opacity="1"/>
<path d="M15.3929 16.9871L9.4254 11.0196C9.32415 10.9163 9.26341 10.7725 9.26341 10.6165L9.26127 2.18771C9.26127 1.8697 9.00406 1.61243 8.68599 1.61243C3.83862 1.9082 0 5.93513 0 10.8556C0 15.9703 4.14659 20.1188 9.26127 20.1188C11.5948 20.1188 13.7258 19.2559 15.3544 17.8318C15.4801 17.7264 15.5591 17.5685 15.5591 17.3923C15.5591 17.2363 15.4962 17.0924 15.3929 16.9871Z" fill="#6E62E4" fill-opacity="1"/>
</svg>
