<svg width="21" height="21" viewBox="0 0 21 21" fill="none" xmlns="http://www.w3.org/2000/svg">
<path d="M11.818 6.50232H9.13831V10.5437H11.818C12.9322 10.5437 13.8387 9.63722 13.8387 8.52299C13.8387 7.39264 12.9224 6.50232 11.818 6.50232Z" fill="#6E62E4"/>
<path d="M10.5 0C4.71028 0 0 4.71028 0 10.5C0 16.2897 4.71028 21 10.5 21C16.2897 21 21 16.2897 21 10.5C21 4.71028 16.2897 0 10.5 0ZM11.818 11.7742H9.13828V13.1797H11.818C12.1578 13.1797 12.4332 13.4551 12.4332 13.7949C12.4332 14.1347 12.1578 14.4101 11.818 14.4101H9.13828V15.7719C9.13828 16.1116 8.86282 16.3871 8.52305 16.3871C8.18327 16.3871 7.90781 16.1116 7.90781 15.7719V14.4101H7.20509C6.86532 14.4101 6.58986 14.1347 6.58986 13.7949C6.58986 13.4551 6.86532 13.1797 7.20509 13.1797H7.90781V11.7742H7.20509C6.86532 11.7742 6.58986 11.4987 6.58986 11.159C6.58986 10.8192 6.86532 10.5437 7.20509 10.5437H7.90781V5.8871C7.90781 5.54732 8.18327 5.27186 8.52305 5.27186H11.818C13.5728 5.27186 15.0692 6.68604 15.0692 8.52305C15.0691 10.3158 13.6107 11.7742 11.818 11.7742Z" fill="#6E62E4"/>
</svg>
