<svg width="21" height="21" viewBox="0 0 21 21" fill="none" xmlns="http://www.w3.org/2000/svg">
<g clip-path="url(#clip0_127:649)">
<path d="M20.4333 9.13399C20.4328 9.13351 20.4323 9.13303 20.4318 9.13255L11.8655 0.566528C11.5003 0.201233 11.0149 0 10.4985 0C9.98213 0 9.49667 0.201073 9.13138 0.566368L0.569525 9.12806C0.566641 9.13094 0.563757 9.13399 0.560874 9.13687C-0.188943 9.89101 -0.187662 11.1146 0.564559 11.8668C0.908225 12.2106 1.36212 12.4098 1.84742 12.4306C1.86712 12.4325 1.88699 12.4335 1.90702 12.4335H2.24844V18.7376C2.24844 19.985 3.26342 21 4.51119 21H7.86262C8.20228 21 8.47785 20.7246 8.47785 20.3848V15.4424C8.47785 14.8731 8.94088 14.4101 9.51013 14.4101H11.4869C12.0561 14.4101 12.5192 14.8731 12.5192 15.4424V20.3848C12.5192 20.7246 12.7946 21 13.1344 21H16.4858C17.7336 21 18.7486 19.985 18.7486 18.7376V12.4335H19.0652C19.5814 12.4335 20.0668 12.2324 20.4323 11.8671C21.1853 11.1136 21.1856 9.88797 20.4333 9.13399Z" fill="#E1E3EA"/>
</g>
<defs>
<clipPath id="clip0_127:649">
<rect width="21" height="21" fill="white"/>
</clipPath>
</defs>
</svg>
