<svg width="17" height="17" viewBox="0 0 17 17" fill="none" xmlns="http://www.w3.org/2000/svg">
<path d="M8.49984 0.708344C4.43542 0.708344 1.102 3.82076 0.743587 7.79168H7.08317V5.66668C7.08317 5.38051 7.256 5.12197 7.52021 5.01218C7.78513 4.90239 8.08971 4.9633 8.2923 5.16589L11.1256 7.99922C11.4026 8.27618 11.4026 8.72384 11.1256 9.0008L8.2923 11.8341C8.08971 12.0367 7.78513 12.0976 7.52021 11.9878C7.256 11.8781 7.08317 11.6195 7.08317 11.3333V9.20834H0.743587C1.102 13.1793 4.43542 16.2917 8.49984 16.2917C12.803 16.2917 16.2915 12.8031 16.2915 8.50001C16.2915 4.19689 12.803 0.708344 8.49984 0.708344Z" fill="#6E5DE7"/>
</svg>
