<svg width="8" height="8" viewBox="0 0 8 8" fill="none" xmlns="http://www.w3.org/2000/svg">
<path d="M1.3641 3.65732C1.17484 3.45623 0.858405 3.44664 0.657318 3.6359C0.456231 3.82516 0.446642 4.1416 0.6359 4.34268L1.3641 3.65732ZM3.82353 7L3.45943 7.34268C3.57001 7.46017 3.73049 7.51708 3.89038 7.49551C4.05027 7.47394 4.18993 7.37654 4.26542 7.23394L3.82353 7ZM7.44189 1.23394C7.5711 0.989893 7.478 0.68731 7.23394 0.558106C6.98989 0.428902 6.68731 0.522005 6.55811 0.766056L7.44189 1.23394ZM0.6359 4.34268L3.45943 7.34268L4.18763 6.65732L1.3641 3.65732L0.6359 4.34268ZM4.26542 7.23394L7.44189 1.23394L6.55811 0.766056L3.38164 6.76606L4.26542 7.23394Z" fill="white"/>
</svg>
