<svg width="223" height="124" viewBox="0 0 223 124" fill="none" xmlns="http://www.w3.org/2000/svg">
<rect width="222.564" height="124" rx="10" fill="#5DAFE7"/>
<circle cx="190.769" cy="25.4359" r="7.94872" fill="#ED0005"/>
<circle cx="198.718" cy="25.4359" r="7.94872" fill="#E99818" fill-opacity="0.8"/>
<path d="M17.09 17H22.37V17.85H18.08V19.85H20.26C21.0933 19.85 21.7267 20.0233 22.16 20.37C22.5933 20.7167 22.81 21.2167 22.81 21.87C22.81 22.5567 22.5733 23.0833 22.1 23.45C21.6333 23.8167 20.9633 24 20.09 24H17.09V17ZM20.05 23.21C20.6233 23.21 21.06 23.1 21.36 22.88C21.66 22.66 21.81 22.3367 21.81 21.91C21.81 21.0633 21.2233 20.64 20.05 20.64H18.08V23.21H20.05ZM25.7265 18.65C26.4598 18.65 27.0198 18.83 27.4065 19.19C27.7998 19.55 27.9965 20.0867 27.9965 20.8V24H27.0865V23.3C26.9265 23.5467 26.6965 23.7367 26.3965 23.87C26.1031 23.9967 25.7531 24.06 25.3465 24.06C24.7531 24.06 24.2765 23.9167 23.9165 23.63C23.5631 23.3433 23.3865 22.9667 23.3865 22.5C23.3865 22.0333 23.5565 21.66 23.8965 21.38C24.2365 21.0933 24.7765 20.95 25.5165 20.95H27.0365V20.76C27.0365 20.3467 26.9165 20.03 26.6765 19.81C26.4365 19.59 26.0831 19.48 25.6165 19.48C25.3031 19.48 24.9965 19.5333 24.6965 19.64C24.3965 19.74 24.1431 19.8767 23.9365 20.05L23.5365 19.33C23.8098 19.11 24.1365 18.9433 24.5165 18.83C24.8965 18.71 25.2998 18.65 25.7265 18.65ZM25.5065 23.32C25.8731 23.32 26.1898 23.24 26.4565 23.08C26.7231 22.9133 26.9165 22.68 27.0365 22.38V21.64H25.5565C24.7431 21.64 24.3365 21.9133 24.3365 22.46C24.3365 22.7267 24.4398 22.9367 24.6465 23.09C24.8531 23.2433 25.1398 23.32 25.5065 23.32ZM33.8671 18.7V24H32.9071V19.54H30.6271L30.5671 20.72C30.5338 21.4333 30.4705 22.03 30.3771 22.51C30.2838 22.9833 30.1305 23.3633 29.9171 23.65C29.7038 23.9367 29.4071 24.08 29.0271 24.08C28.8538 24.08 28.6571 24.05 28.4371 23.99L28.4971 23.18C28.5838 23.2 28.6638 23.21 28.7371 23.21C29.0038 23.21 29.2038 23.0933 29.3371 22.86C29.4705 22.6267 29.5571 22.35 29.5971 22.03C29.6371 21.71 29.6738 21.2533 29.7071 20.66L29.7971 18.7H33.8671ZM37.2054 18.65C37.9387 18.65 38.4987 18.83 38.8854 19.19C39.2787 19.55 39.4754 20.0867 39.4754 20.8V24H38.5654V23.3C38.4054 23.5467 38.1754 23.7367 37.8754 23.87C37.582 23.9967 37.232 24.06 36.8254 24.06C36.232 24.06 35.7554 23.9167 35.3954 23.63C35.042 23.3433 34.8654 22.9667 34.8654 22.5C34.8654 22.0333 35.0354 21.66 35.3754 21.38C35.7154 21.0933 36.2554 20.95 36.9954 20.95H38.5154V20.76C38.5154 20.3467 38.3954 20.03 38.1554 19.81C37.9154 19.59 37.562 19.48 37.0954 19.48C36.782 19.48 36.4754 19.5333 36.1754 19.64C35.8754 19.74 35.622 19.8767 35.4154 20.05L35.0154 19.33C35.2887 19.11 35.6154 18.9433 35.9954 18.83C36.3754 18.71 36.7787 18.65 37.2054 18.65ZM36.9854 23.32C37.352 23.32 37.6687 23.24 37.9354 23.08C38.202 22.9133 38.3954 22.68 38.5154 22.38V21.64H37.0354C36.222 21.64 35.8154 21.9133 35.8154 22.46C35.8154 22.7267 35.9187 22.9367 36.1254 23.09C36.332 23.2433 36.6187 23.32 36.9854 23.32ZM40.796 18.7H41.756V20.95H44.776V18.7H45.736V24H44.776V21.78H41.756V24H40.796V18.7ZM49.5047 24.06C48.9647 24.06 48.4814 23.9433 48.0547 23.71C47.6347 23.4767 47.3047 23.1567 47.0647 22.75C46.8247 22.3367 46.7047 21.87 46.7047 21.35C46.7047 20.83 46.8247 20.3667 47.0647 19.96C47.3047 19.5467 47.6347 19.2267 48.0547 19C48.4814 18.7667 48.9647 18.65 49.5047 18.65C49.9847 18.65 50.4114 18.7467 50.7847 18.94C51.1647 19.1333 51.458 19.4133 51.6647 19.78L50.9347 20.25C50.768 19.9967 50.5614 19.8067 50.3147 19.68C50.068 19.5533 49.7947 19.49 49.4947 19.49C49.148 19.49 48.8347 19.5667 48.5547 19.72C48.2814 19.8733 48.0647 20.0933 47.9047 20.38C47.7514 20.66 47.6747 20.9833 47.6747 21.35C47.6747 21.7233 47.7514 22.0533 47.9047 22.34C48.0647 22.62 48.2814 22.8367 48.5547 22.99C48.8347 23.1433 49.148 23.22 49.4947 23.22C49.7947 23.22 50.068 23.1567 50.3147 23.03C50.5614 22.9033 50.768 22.7133 50.9347 22.46L51.6647 22.92C51.458 23.2867 51.1647 23.57 50.7847 23.77C50.4114 23.9633 49.9847 24.06 49.5047 24.06Z" fill="white"/>
<path d="M99.762 94.072C99.132 94.072 98.562 93.934 98.052 93.658C97.548 93.376 97.152 92.992 96.864 92.506C96.576 92.014 96.432 91.462 96.432 90.85C96.432 90.238 96.576 89.689 96.864 89.203C97.152 88.711 97.551 88.327 98.061 88.051C98.571 87.769 99.141 87.628 99.771 87.628C100.263 87.628 100.713 87.712 101.121 87.88C101.529 88.042 101.877 88.285 102.165 88.609L101.58 89.176C101.106 88.678 100.515 88.429 99.807 88.429C99.339 88.429 98.916 88.534 98.538 88.744C98.16 88.954 97.863 89.245 97.647 89.617C97.437 89.983 97.332 90.394 97.332 90.85C97.332 91.306 97.437 91.72 97.647 92.092C97.863 92.458 98.16 92.746 98.538 92.956C98.916 93.166 99.339 93.271 99.807 93.271C100.509 93.271 101.1 93.019 101.58 92.515L102.165 93.082C101.877 93.406 101.526 93.652 101.112 93.82C100.704 93.988 100.254 94.072 99.762 94.072ZM108.451 87.7L105.688 94H104.797L102.025 87.7H102.997L105.265 92.875L107.551 87.7H108.451ZM114.451 87.7L111.688 94H110.797L108.025 87.7H108.997L111.265 92.875L113.551 87.7H114.451Z" fill="white" fill-opacity="0.5"/>
<path d="M22.157 94L20.798 92.065C20.63 92.077 20.498 92.083 20.402 92.083H18.845V94H17.945V87.7H20.402C21.218 87.7 21.86 87.895 22.328 88.285C22.796 88.675 23.03 89.212 23.03 89.896C23.03 90.382 22.91 90.796 22.67 91.138C22.43 91.48 22.088 91.729 21.644 91.885L23.138 94H22.157ZM20.375 91.318C20.945 91.318 21.38 91.195 21.68 90.949C21.98 90.703 22.13 90.352 22.13 89.896C22.13 89.44 21.98 89.092 21.68 88.852C21.38 88.606 20.945 88.483 20.375 88.483H18.845V91.318H20.375ZM26.9201 94.072C26.2841 94.072 25.7111 93.934 25.2011 93.658C24.6911 93.376 24.2891 92.989 23.9951 92.497C23.7071 92.005 23.5631 91.456 23.5631 90.85C23.5631 90.244 23.7071 89.695 23.9951 89.203C24.2891 88.711 24.6911 88.327 25.2011 88.051C25.7111 87.769 26.2841 87.628 26.9201 87.628C27.5501 87.628 28.1201 87.769 28.6301 88.051C29.1401 88.327 29.5391 88.711 29.8271 89.203C30.1151 89.689 30.2591 90.238 30.2591 90.85C30.2591 91.462 30.1151 92.014 29.8271 92.506C29.5391 92.992 29.1401 93.376 28.6301 93.658C28.1201 93.934 27.5501 94.072 26.9201 94.072ZM26.9201 93.271C27.3821 93.271 27.7961 93.166 28.1621 92.956C28.5341 92.746 28.8251 92.458 29.0351 92.092C29.2511 91.72 29.3591 91.306 29.3591 90.85C29.3591 90.394 29.2511 89.983 29.0351 89.617C28.8251 89.245 28.5341 88.954 28.1621 88.744C27.7961 88.534 27.3821 88.429 26.9201 88.429C26.4581 88.429 26.0381 88.534 25.6601 88.744C25.2881 88.954 24.9941 89.245 24.7781 89.617C24.5681 89.983 24.4631 90.394 24.4631 90.85C24.4631 91.306 24.5681 91.72 24.7781 92.092C24.9941 92.458 25.2881 92.746 25.6601 92.956C26.0381 93.166 26.4581 93.271 26.9201 93.271ZM37.0677 94L37.0587 89.41L34.7817 93.235H34.3677L32.0907 89.437V94H31.2267V87.7H31.9647L34.5927 92.128L37.1847 87.7H37.9227L37.9317 94H37.0677ZM43.4284 92.425H40.0804L39.3874 94H38.4604L41.3134 87.7H42.2044L45.0664 94H44.1214L43.4284 92.425ZM43.1134 91.705L41.7544 88.618L40.3954 91.705H43.1134ZM51.0162 87.7V94H50.2782L46.4982 89.302V94H45.5982V87.7H46.3362L50.1162 92.398V87.7H51.0162ZM55.3379 94.072C54.7019 94.072 54.1289 93.934 53.6189 93.658C53.1089 93.376 52.7069 92.989 52.4129 92.497C52.1249 92.005 51.9809 91.456 51.9809 90.85C51.9809 90.244 52.1249 89.695 52.4129 89.203C52.7069 88.711 53.1089 88.327 53.6189 88.051C54.1289 87.769 54.7019 87.628 55.3379 87.628C55.9679 87.628 56.5379 87.769 57.0479 88.051C57.5579 88.327 57.9569 88.711 58.2449 89.203C58.5329 89.689 58.6769 90.238 58.6769 90.85C58.6769 91.462 58.5329 92.014 58.2449 92.506C57.9569 92.992 57.5579 93.376 57.0479 93.658C56.5379 93.934 55.9679 94.072 55.3379 94.072ZM55.3379 93.271C55.7999 93.271 56.2139 93.166 56.5799 92.956C56.9519 92.746 57.2429 92.458 57.4529 92.092C57.6689 91.72 57.7769 91.306 57.7769 90.85C57.7769 90.394 57.6689 89.983 57.4529 89.617C57.2429 89.245 56.9519 88.954 56.5799 88.744C56.2139 88.534 55.7999 88.429 55.3379 88.429C54.8759 88.429 54.4559 88.534 54.0779 88.744C53.7059 88.954 53.4119 89.245 53.1959 89.617C52.9859 89.983 52.8809 90.394 52.8809 90.85C52.8809 91.306 52.9859 91.72 53.1959 92.092C53.4119 92.458 53.7059 92.746 54.0779 92.956C54.4559 93.166 54.8759 93.271 55.3379 93.271ZM64.9143 87.7L62.1513 94H61.2603L58.4883 87.7H59.4603L61.7283 92.875L64.0143 87.7H64.9143ZM69.1216 92.425H65.7736L65.0806 94H64.1536L67.0066 87.7H67.8976L70.7596 94H69.8146L69.1216 92.425ZM68.8066 91.705L67.4476 88.618L66.0886 91.705H68.8066ZM77.8723 93.217V94H73.3003V87.7H77.7463V88.483H74.2003V90.418H77.3593V91.183H74.2003V93.217H77.8723ZM79.0905 94.054C78.9225 94.054 78.7785 93.997 78.6585 93.883C78.5385 93.763 78.4785 93.613 78.4785 93.433C78.4785 93.259 78.5385 93.115 78.6585 93.001C78.7785 92.881 78.9225 92.821 79.0905 92.821C79.2585 92.821 79.3995 92.878 79.5135 92.992C79.6275 93.106 79.6845 93.253 79.6845 93.433C79.6845 93.613 79.6245 93.763 79.5045 93.883C79.3905 93.997 79.2525 94.054 79.0905 94.054Z" fill="white" fill-opacity="0.5"/>
<path d="M19.65 104V111H18.66V104.87H17.08V104H19.65ZM22.9432 104V111H21.9532V104.87H20.3732V104H22.9432ZM28.8839 102.58H29.7539L26.4539 112H25.5839L28.8839 102.58ZM36.6491 110.13V111H31.6191V110.32L34.4691 107.57C34.8157 107.237 35.0491 106.95 35.1691 106.71C35.2891 106.463 35.3491 106.217 35.3491 105.97C35.3491 105.603 35.2191 105.32 34.9591 105.12C34.7057 104.913 34.3391 104.81 33.8591 104.81C33.0857 104.81 32.4891 105.063 32.0691 105.57L31.3891 104.98C31.6624 104.647 32.0191 104.387 32.4591 104.2C32.9057 104.013 33.4024 103.92 33.9491 103.92C34.6824 103.92 35.2657 104.097 35.6991 104.45C36.1324 104.797 36.3491 105.27 36.3491 105.87C36.3491 106.243 36.2691 106.597 36.1091 106.93C35.9491 107.263 35.6457 107.643 35.1991 108.07L33.0591 110.13H36.6491ZM39.2333 104V111H38.2433V104.87H36.6633V104H39.2333Z" fill="white"/>
<path d="M26.367 43.13V45H17.595V43.521L22.321 39.033C22.8537 38.523 23.2107 38.081 23.392 37.707C23.5847 37.3217 23.681 36.942 23.681 36.568C23.681 36.0127 23.494 35.5877 23.12 35.293C22.746 34.9983 22.1963 34.851 21.471 34.851C20.2583 34.851 19.329 35.2647 18.683 36.092L17.136 34.902C17.6007 34.2787 18.224 33.797 19.006 33.457C19.7993 33.1057 20.6833 32.93 21.658 32.93C22.95 32.93 23.9813 33.236 24.752 33.848C25.5227 34.46 25.908 35.293 25.908 36.347C25.908 36.993 25.772 37.5993 25.5 38.166C25.228 38.7327 24.7067 39.3787 23.936 40.104L20.757 43.13H26.367ZM32.1487 45.17C31.1967 45.17 30.3467 44.932 29.5987 44.456C28.8507 43.9687 28.2614 43.266 27.8307 42.348C27.4001 41.4187 27.1847 40.3193 27.1847 39.05C27.1847 37.7807 27.4001 36.687 27.8307 35.769C28.2614 34.8397 28.8507 34.137 29.5987 33.661C30.3467 33.1737 31.1967 32.93 32.1487 32.93C33.1007 32.93 33.9507 33.1737 34.6987 33.661C35.4581 34.137 36.0531 34.8397 36.4837 35.769C36.9144 36.687 37.1297 37.7807 37.1297 39.05C37.1297 40.3193 36.9144 41.4187 36.4837 42.348C36.0531 43.266 35.4581 43.9687 34.6987 44.456C33.9507 44.932 33.1007 45.17 32.1487 45.17ZM32.1487 43.249C32.9987 43.249 33.6674 42.8977 34.1547 42.195C34.6534 41.4923 34.9027 40.444 34.9027 39.05C34.9027 37.656 34.6534 36.6077 34.1547 35.905C33.6674 35.2023 32.9987 34.851 32.1487 34.851C31.3101 34.851 30.6414 35.2023 30.1427 35.905C29.6554 36.6077 29.4117 37.656 29.4117 39.05C29.4117 40.444 29.6554 41.4923 30.1427 42.195C30.6414 42.8977 31.3101 43.249 32.1487 43.249ZM43.1792 45.17C42.2272 45.17 41.3772 44.932 40.6292 44.456C39.8812 43.9687 39.2919 43.266 38.8612 42.348C38.4305 41.4187 38.2152 40.3193 38.2152 39.05C38.2152 37.7807 38.4305 36.687 38.8612 35.769C39.2919 34.8397 39.8812 34.137 40.6292 33.661C41.3772 33.1737 42.2272 32.93 43.1792 32.93C44.1312 32.93 44.9812 33.1737 45.7292 33.661C46.4885 34.137 47.0835 34.8397 47.5142 35.769C47.9449 36.687 48.1602 37.7807 48.1602 39.05C48.1602 40.3193 47.9449 41.4187 47.5142 42.348C47.0835 43.266 46.4885 43.9687 45.7292 44.456C44.9812 44.932 44.1312 45.17 43.1792 45.17ZM43.1792 43.249C44.0292 43.249 44.6979 42.8977 45.1852 42.195C45.6839 41.4923 45.9332 40.444 45.9332 39.05C45.9332 37.656 45.6839 36.6077 45.1852 35.905C44.6979 35.2023 44.0292 34.851 43.1792 34.851C42.3405 34.851 41.6719 35.2023 41.1732 35.905C40.6859 36.6077 40.4422 37.656 40.4422 39.05C40.4422 40.444 40.6859 41.4923 41.1732 42.195C41.6719 42.8977 42.3405 43.249 43.1792 43.249ZM58.4999 45.17C57.5479 45.17 56.6979 44.932 55.9499 44.456C55.2019 43.9687 54.6126 43.266 54.1819 42.348C53.7513 41.4187 53.5359 40.3193 53.5359 39.05C53.5359 37.7807 53.7513 36.687 54.1819 35.769C54.6126 34.8397 55.2019 34.137 55.9499 33.661C56.6979 33.1737 57.5479 32.93 58.4999 32.93C59.4519 32.93 60.3019 33.1737 61.0499 33.661C61.8093 34.137 62.4043 34.8397 62.8349 35.769C63.2656 36.687 63.4809 37.7807 63.4809 39.05C63.4809 40.3193 63.2656 41.4187 62.8349 42.348C62.4043 43.266 61.8093 43.9687 61.0499 44.456C60.3019 44.932 59.4519 45.17 58.4999 45.17ZM58.4999 43.249C59.3499 43.249 60.0186 42.8977 60.5059 42.195C61.0046 41.4923 61.2539 40.444 61.2539 39.05C61.2539 37.656 61.0046 36.6077 60.5059 35.905C60.0186 35.2023 59.3499 34.851 58.4999 34.851C57.6613 34.851 56.9926 35.2023 56.4939 35.905C56.0066 36.6077 55.7629 37.656 55.7629 39.05C55.7629 40.444 56.0066 41.4923 56.4939 42.195C56.9926 42.8977 57.6613 43.249 58.4999 43.249ZM69.5304 45.17C68.5784 45.17 67.7284 44.932 66.9804 44.456C66.2324 43.9687 65.6431 43.266 65.2124 42.348C64.7817 41.4187 64.5664 40.3193 64.5664 39.05C64.5664 37.7807 64.7817 36.687 65.2124 35.769C65.6431 34.8397 66.2324 34.137 66.9804 33.661C67.7284 33.1737 68.5784 32.93 69.5304 32.93C70.4824 32.93 71.3324 33.1737 72.0804 33.661C72.8397 34.137 73.4347 34.8397 73.8654 35.769C74.2961 36.687 74.5114 37.7807 74.5114 39.05C74.5114 40.3193 74.2961 41.4187 73.8654 42.348C73.4347 43.266 72.8397 43.9687 72.0804 44.456C71.3324 44.932 70.4824 45.17 69.5304 45.17ZM69.5304 43.249C70.3804 43.249 71.0491 42.8977 71.5364 42.195C72.0351 41.4923 72.2844 40.444 72.2844 39.05C72.2844 37.656 72.0351 36.6077 71.5364 35.905C71.0491 35.2023 70.3804 34.851 69.5304 34.851C68.6917 34.851 68.0231 35.2023 67.5244 35.905C67.0371 36.6077 66.7934 37.656 66.7934 39.05C66.7934 40.444 67.0371 41.4923 67.5244 42.195C68.0231 42.8977 68.6917 43.249 69.5304 43.249ZM80.5609 45.17C79.6089 45.17 78.7589 44.932 78.0109 44.456C77.2629 43.9687 76.6735 43.266 76.2429 42.348C75.8122 41.4187 75.5969 40.3193 75.5969 39.05C75.5969 37.7807 75.8122 36.687 76.2429 35.769C76.6735 34.8397 77.2629 34.137 78.0109 33.661C78.7589 33.1737 79.6089 32.93 80.5609 32.93C81.5129 32.93 82.3629 33.1737 83.1109 33.661C83.8702 34.137 84.4652 34.8397 84.8959 35.769C85.3265 36.687 85.5419 37.7807 85.5419 39.05C85.5419 40.3193 85.3265 41.4187 84.8959 42.348C84.4652 43.266 83.8702 43.9687 83.1109 44.456C82.3629 44.932 81.5129 45.17 80.5609 45.17ZM80.5609 43.249C81.4109 43.249 82.0795 42.8977 82.5669 42.195C83.0655 41.4923 83.3149 40.444 83.3149 39.05C83.3149 37.656 83.0655 36.6077 82.5669 35.905C82.0795 35.2023 81.4109 34.851 80.5609 34.851C79.7222 34.851 79.0535 35.2023 78.5549 35.905C78.0675 36.6077 77.8239 37.656 77.8239 39.05C77.8239 40.444 78.0675 41.4923 78.5549 42.195C79.0535 42.8977 79.7222 43.249 80.5609 43.249ZM92.3393 35.82C93.2233 35.82 94.011 36.0127 94.7023 36.398C95.405 36.7833 95.9547 37.3273 96.3513 38.03C96.748 38.7327 96.9463 39.543 96.9463 40.461C96.9463 41.379 96.748 42.195 96.3513 42.909C95.9547 43.6117 95.405 44.1557 94.7023 44.541C94.011 44.9263 93.2233 45.119 92.3393 45.119C91.1153 45.119 90.1463 44.711 89.4323 43.895V48.298H87.3073V35.922H89.3303V37.112C89.6817 36.6813 90.1123 36.3583 90.6223 36.143C91.1437 35.9277 91.716 35.82 92.3393 35.82ZM92.1013 43.3C92.8833 43.3 93.5237 43.0393 94.0223 42.518C94.5323 41.9967 94.7873 41.311 94.7873 40.461C94.7873 39.611 94.5323 38.9253 94.0223 38.404C93.5237 37.8827 92.8833 37.622 92.1013 37.622C91.5913 37.622 91.1323 37.741 90.7243 37.979C90.3163 38.2057 89.9933 38.5343 89.7553 38.965C89.5173 39.3957 89.3983 39.8943 89.3983 40.461C89.3983 41.0277 89.5173 41.5263 89.7553 41.957C89.9933 42.3877 90.3163 42.722 90.7243 42.96C91.1323 43.1867 91.5913 43.3 92.1013 43.3Z" fill="white"/>
<path d="M147.3 59.504C148.428 59.504 149.296 59.868 149.904 60.596C150.52 61.324 150.828 62.356 150.828 63.692C150.828 64.628 150.66 65.428 150.324 66.092C149.996 66.748 149.532 67.248 148.932 67.592C148.34 67.928 147.648 68.096 146.856 68.096C146.448 68.096 146.064 68.056 145.704 67.976C145.344 67.888 145.032 67.764 144.768 67.604L145.224 66.668C145.632 66.932 146.172 67.064 146.844 67.064C147.716 67.064 148.396 66.796 148.884 66.26C149.38 65.716 149.628 64.928 149.628 63.896V63.596C149.388 63.956 149.056 64.232 148.632 64.424C148.208 64.608 147.732 64.7 147.204 64.7C146.652 64.7 146.156 64.596 145.716 64.388C145.284 64.18 144.944 63.884 144.696 63.5C144.456 63.108 144.336 62.66 144.336 62.156C144.336 61.628 144.464 61.164 144.72 60.764C144.984 60.364 145.34 60.056 145.788 59.84C146.236 59.616 146.74 59.504 147.3 59.504ZM147.408 63.728C147.784 63.728 148.12 63.656 148.416 63.512C148.712 63.368 148.94 63.172 149.1 62.924C149.268 62.676 149.352 62.4 149.352 62.096C149.352 61.8 149.272 61.532 149.112 61.292C148.96 61.044 148.732 60.848 148.428 60.704C148.132 60.552 147.772 60.476 147.348 60.476C146.796 60.476 146.348 60.624 146.004 60.92C145.668 61.216 145.5 61.612 145.5 62.108C145.5 62.604 145.672 63 146.016 63.296C146.36 63.584 146.824 63.728 147.408 63.728ZM155.006 68.096C154.342 68.096 153.75 67.928 153.23 67.592C152.718 67.248 152.314 66.752 152.018 66.104C151.722 65.456 151.574 64.688 151.574 63.8C151.574 62.912 151.722 62.144 152.018 61.496C152.314 60.848 152.718 60.356 153.23 60.02C153.75 59.676 154.342 59.504 155.006 59.504C155.662 59.504 156.246 59.676 156.758 60.02C157.278 60.356 157.686 60.848 157.982 61.496C158.278 62.144 158.426 62.912 158.426 63.8C158.426 64.688 158.278 65.456 157.982 66.104C157.686 66.752 157.278 67.248 156.758 67.592C156.246 67.928 155.662 68.096 155.006 68.096ZM155.006 67.028C155.678 67.028 156.214 66.752 156.614 66.2C157.022 65.648 157.226 64.848 157.226 63.8C157.226 62.752 157.022 61.952 156.614 61.4C156.214 60.848 155.678 60.572 155.006 60.572C154.326 60.572 153.782 60.848 153.374 61.4C152.974 61.952 152.774 62.752 152.774 63.8C152.774 64.848 152.974 65.648 153.374 66.2C153.782 66.752 154.326 67.028 155.006 67.028ZM162.602 68.096C161.938 68.096 161.346 67.928 160.826 67.592C160.314 67.248 159.91 66.752 159.614 66.104C159.318 65.456 159.17 64.688 159.17 63.8C159.17 62.912 159.318 62.144 159.614 61.496C159.91 60.848 160.314 60.356 160.826 60.02C161.346 59.676 161.938 59.504 162.602 59.504C163.258 59.504 163.842 59.676 164.354 60.02C164.874 60.356 165.282 60.848 165.578 61.496C165.874 62.144 166.022 62.912 166.022 63.8C166.022 64.688 165.874 65.456 165.578 66.104C165.282 66.752 164.874 67.248 164.354 67.592C163.842 67.928 163.258 68.096 162.602 68.096ZM162.602 67.028C163.274 67.028 163.81 66.752 164.21 66.2C164.618 65.648 164.822 64.848 164.822 63.8C164.822 62.752 164.618 61.952 164.21 61.4C163.81 60.848 163.274 60.572 162.602 60.572C161.922 60.572 161.378 60.848 160.97 61.4C160.57 61.952 160.37 62.752 160.37 63.8C160.37 64.848 160.57 65.648 160.97 66.2C161.378 66.752 161.922 67.028 162.602 67.028ZM172.635 66.956V68H166.599V67.184L170.019 63.884C170.435 63.484 170.715 63.14 170.859 62.852C171.003 62.556 171.075 62.26 171.075 61.964C171.075 61.524 170.919 61.184 170.607 60.944C170.303 60.696 169.863 60.572 169.287 60.572C168.359 60.572 167.643 60.876 167.139 61.484L166.323 60.776C166.651 60.376 167.079 60.064 167.607 59.84C168.143 59.616 168.739 59.504 169.395 59.504C170.275 59.504 170.975 59.716 171.495 60.14C172.015 60.556 172.275 61.124 172.275 61.844C172.275 62.292 172.179 62.716 171.987 63.116C171.795 63.516 171.431 63.972 170.895 64.484L168.327 66.956H172.635Z" fill="white"/>
<circle cx="116.052" cy="66.7692" r="1.58974" fill="white"/>
<circle cx="111.282" cy="66.7692" r="1.58974" fill="white"/>
<circle cx="106.513" cy="66.7692" r="1.58974" fill="white"/>
<circle cx="101.744" cy="66.7692" r="1.58974" fill="white"/>
<circle cx="107.128" cy="109.59" r="1.58974" fill="white"/>
<circle cx="102.359" cy="109.59" r="1.58974" fill="white"/>
<circle cx="97.5897" cy="109.59" r="1.58974" fill="white"/>
<circle cx="72.3334" cy="66.7692" r="1.58974" fill="white"/>
<circle cx="67.5644" cy="66.7692" r="1.58974" fill="white"/>
<circle cx="62.7948" cy="66.7692" r="1.58974" fill="white"/>
<circle cx="58.0258" cy="66.7692" r="1.58974" fill="white"/>
<circle cx="32.5897" cy="66.7692" r="1.58974" fill="white"/>
<circle cx="27.8207" cy="66.7692" r="1.58974" fill="white"/>
<circle cx="23.0517" cy="66.7692" r="1.58974" fill="white"/>
<circle cx="18.2821" cy="66.7692" r="1.58974" fill="white"/>
</svg>
