<svg width="11" height="11" viewBox="0 0 11 11" fill="none" xmlns="http://www.w3.org/2000/svg">
<g clip-path="url(#clip0_218_130)">
<path d="M9.03559 5.49999C8.81861 5.49999 8.64273 5.67588 8.64273 5.89285V9.82136C8.64273 10.0383 8.46684 10.2142 8.24987 10.2142H1.17856C0.961582 10.2142 0.785696 10.0383 0.785696 9.82136V1.96432C0.785696 1.74735 0.961582 1.57146 1.17856 1.57146H5.89278C6.10975 1.57146 6.28564 1.39558 6.28564 1.1786C6.28564 0.961629 6.10975 0.785767 5.89278 0.785767H1.17856C0.527657 0.785767 0 1.31342 0 1.96432V9.82136C0 10.4723 0.527657 10.9999 1.17856 10.9999H8.24989C8.90079 10.9999 9.42845 10.4723 9.42845 9.82136V5.89283C9.42845 5.67588 9.25256 5.49999 9.03559 5.49999Z" fill="#4B5664"/>
<path d="M10.5597 0.440537C10.2777 0.158421 9.89509 -3.9822e-05 9.49615 6.2153e-06C9.09698 -0.00114472 8.714 0.157592 8.43271 0.440791L3.25804 5.61502C3.21511 5.65827 3.18272 5.71085 3.16336 5.76862L2.37766 8.12573C2.30909 8.33159 2.42039 8.55404 2.62624 8.62259C2.66618 8.6359 2.70801 8.64269 2.75008 8.64273C2.79225 8.64266 2.83417 8.6359 2.87422 8.62271L5.23134 7.83701C5.28923 7.81768 5.34183 7.78513 5.38494 7.74194L10.5596 2.5673C11.1469 1.98005 11.147 1.02786 10.5597 0.440537Z" fill="#4B5664"/>
</g>
<defs>
<clipPath id="clip0_218_130">
<rect width="11" height="11" fill="white"/>
</clipPath>
</defs>
</svg>
