<svg width="13" height="13" viewBox="0 0 13 13" fill="none" xmlns="http://www.w3.org/2000/svg">
<path fill-rule="evenodd" clip-rule="evenodd" d="M3.41664 0.565216C3.07735 0.565216 2.80231 0.840261 2.80231 1.17955V2.42055C2.99867 2.37172 3.20453 2.34575 3.41666 2.34575C3.62878 2.34575 3.83462 2.37172 4.03097 2.42054V1.17955C4.03097 0.840261 3.75592 0.565216 3.41664 0.565216ZM4.03097 7.0188C3.83462 7.06761 3.62878 7.09358 3.41666 7.09358C3.20453 7.09358 2.99867 7.06761 2.80231 7.01878V11.8205C2.80231 12.1597 3.07735 12.4348 3.41664 12.4348C3.75592 12.4348 4.03097 12.1597 4.03097 11.8205V7.0188Z" fill="#313131"/>
<ellipse cx="3.41641" cy="4.7196" rx="1.72073" ry="1.66174" fill="#313131"/>
<path fill-rule="evenodd" clip-rule="evenodd" d="M9.89778 12.4348C9.55849 12.4348 9.28345 12.1597 9.28345 11.8205V10.5794C9.47983 10.6283 9.6857 10.6542 9.89786 10.6542C10.11 10.6542 10.3158 10.6283 10.5121 10.5795V11.8205C10.5121 12.1597 10.2371 12.4348 9.89778 12.4348ZM10.5121 5.98119C10.3158 5.93238 10.11 5.90642 9.89786 5.90642C9.6857 5.90642 9.47983 5.9324 9.28345 5.98123V1.17955C9.28345 0.840263 9.55849 0.565218 9.89778 0.565218C10.2371 0.565218 10.5121 0.840263 10.5121 1.17955V5.98119Z" fill="#313131"/>
<ellipse rx="1.72074" ry="1.66174" transform="matrix(1 0 0 -1 9.89743 8.2804)" fill="#313131"/>
</svg>
