<svg width="17" height="17" viewBox="0 0 17 17" fill="none" xmlns="http://www.w3.org/2000/svg">
<path d="M16.6185 13.063V13.6279C16.6185 14.5377 16.2275 15.4039 15.545 16.0055L15.515 16.0319C15.1301 16.371 14.6346 16.5583 14.1217 16.5583H12.0019C11.7374 16.5583 11.4776 16.5085 11.2353 16.4141C10.9931 16.3195 10.7686 16.1799 10.5739 16.0006C9.92291 15.4004 9.55249 14.5552 9.55249 13.6698V13.0457C9.55249 11.1288 10.5324 9.80706 12.1501 8.7788L12.1814 8.75896V7.9971L11.6312 4.89689C11.6073 4.7821 11.695 4.67419 11.8124 4.67419H14.3247C14.4419 4.67419 14.5295 4.78185 14.5059 4.89663L13.9618 7.99606V8.75896L13.9985 8.78191C15.6291 9.80758 16.6185 11.1366 16.6185 13.063Z" fill="#4F96C7"/>
<path d="M16.6184 13.063V13.6279C16.6184 14.5377 16.2274 15.4039 15.5449 16.0055L15.5149 16.0319C15.13 16.371 14.6345 16.5583 14.1216 16.5583H12.8564C12.5919 16.5583 12.3321 16.5085 12.09 16.4141C11.8477 16.3195 11.623 16.1799 11.4284 16.0006C10.7774 15.4004 10.407 14.5552 10.407 13.6698V13.0457C10.407 11.1288 11.3869 9.80706 13.0047 8.7788L13.036 8.75896V7.9971L12.4858 4.89689C12.4618 4.7821 12.5495 4.67419 12.667 4.67419H14.3246C14.4417 4.67419 14.5294 4.78185 14.5058 4.89663L13.9617 7.99606V8.75896L13.9982 8.78191C15.629 9.80758 16.6184 11.1366 16.6184 13.063Z" fill="#5DAFE7"/>
<path d="M12.1814 7.99792H13.9618V8.75901H12.1814V7.99792Z" fill="white"/>
<path d="M12.1814 7.99792H13.036V8.75901H12.1814V7.99792Z" fill="white"/>
<path d="M10.7137 15.6013C10.139 16.2271 9.39111 16.5985 8.61083 16.7094C7.59943 16.8534 6.53382 16.5594 5.72281 15.8146C4.28548 14.4955 4.19002 12.2607 5.50945 10.8238C6.32799 9.93198 7.49905 9.55689 8.61317 9.71564C9.29474 9.81278 9.95504 10.1094 10.5003 10.6104C11.9376 11.9296 12.0331 14.1642 10.7137 15.6013Z" fill="#443E86"/>
<path d="M10.7137 15.6013C10.139 16.2271 9.39117 16.5986 8.61089 16.7095C7.92945 16.6124 7.26902 16.3156 6.72376 15.8147C5.28643 14.4955 5.19098 12.2608 6.51054 10.8239C7.08511 10.1979 7.83296 9.82646 8.61323 9.7157C9.2948 9.81284 9.9551 10.1095 10.5004 10.6105C11.9377 11.9297 12.0331 14.1643 10.7137 15.6013Z" fill="#484094"/>
<path d="M10.5998 13.6847C10.4819 14.3089 10.1358 14.8621 9.62651 15.2426C9.3164 15.474 8.97023 15.6233 8.6142 15.6946C7.68452 15.8811 6.68622 15.5363 6.08273 14.7276C5.65978 14.1605 5.49272 13.4369 5.62424 12.7416C5.74213 12.1171 6.08817 11.5638 6.5975 11.1838C7.13965 10.7791 7.80682 10.6101 8.4762 10.7071C8.52069 10.7135 8.56531 10.7213 8.60915 10.73C9.22366 10.8525 9.76425 11.1927 10.1413 11.6988C10.5642 12.2654 10.7313 12.9895 10.5998 13.6847Z" fill="#484094"/>
<path d="M6.48538 15.6013C5.91068 16.2271 5.16296 16.5985 4.38256 16.7094C3.37129 16.8534 2.30568 16.5594 1.49454 15.8146C0.0572053 14.4955 -0.0382538 12.2607 1.28118 10.8238C2.09972 9.93198 3.27077 9.55689 4.38503 9.71564C5.06647 9.81278 5.7269 10.1094 6.27203 10.6104C7.70936 11.9296 7.80482 14.1642 6.48538 15.6013Z" fill="#2D2862"/>
<path d="M6.48534 15.6013C5.91064 16.2271 5.16292 16.5986 4.38252 16.7095C3.70107 16.6124 3.04064 16.3156 2.49551 15.8147C1.05818 14.4955 0.962723 12.2608 2.28216 10.8239C2.85686 10.1979 3.60458 9.82646 4.38498 9.7157C5.06642 9.81284 5.72685 10.1095 6.27198 10.6105C7.70931 11.9297 7.80477 14.1643 6.48534 15.6013Z" fill="#3A3379"/>
<path d="M6.37138 13.6847C6.25348 14.3089 5.90757 14.8621 5.39824 15.2426C5.08813 15.474 4.74183 15.6233 4.38593 15.6946C3.45625 15.8811 2.45795 15.5363 1.85445 14.7276C1.4315 14.1605 1.26445 13.4369 1.39597 12.7416C1.51386 12.1171 1.85977 11.5638 2.3691 11.1838C2.91138 10.7791 3.57842 10.6101 4.24793 10.7071C4.29242 10.7135 4.33704 10.7213 4.38087 10.73C4.99539 10.8525 5.53585 11.1927 5.91302 11.6988C6.33597 12.2654 6.50302 12.9895 6.37138 13.6847Z" fill="#3A3379"/>
<path d="M6.37144 13.6847C6.25354 14.3089 5.90764 14.8621 5.39831 15.2426C5.08819 15.474 4.7419 15.6233 4.386 15.6946C3.79418 15.5761 3.24257 15.2479 2.85451 14.7276C2.43156 14.1605 2.26437 13.4369 2.39602 12.7416C2.5143 12.1171 2.85982 11.5638 3.36954 11.1838C3.6746 10.9564 4.01882 10.8033 4.38094 10.73C4.99533 10.8525 5.53592 11.1927 5.91295 11.6988C6.33603 12.2654 6.50309 12.9895 6.37144 13.6847Z" fill="#3A3379"/>
<path d="M10.3579 1.45213V6.45141C10.3579 6.70134 10.1557 6.90355 9.90582 6.90355H0.452133C0.202591 6.90355 0 6.70134 0 6.45141V1.45213C0 1.20259 0.202591 1 0.452133 1H9.90582C10.1557 1 10.3579 1.20259 10.3579 1.45213Z" fill="#6C61D4"/>
<path d="M10.3576 1.45213V5.70356H1.36668C1.11727 5.70356 0.914551 5.50123 0.914551 5.25143V1H9.90546C10.1554 1 10.3576 1.20259 10.3576 1.45213Z" fill="#8075EB"/>
<path fill-rule="evenodd" clip-rule="evenodd" d="M7.41516 14.6067C7.53007 14.6791 7.68078 14.7371 7.86054 14.7629V15.0175C7.86054 15.1562 7.97299 15.2687 8.11177 15.2687C8.25055 15.2687 8.363 15.1562 8.363 15.0175V14.7438C8.76494 14.6463 8.99632 14.3395 8.99632 13.8823C8.99632 13.2363 8.54691 13.0634 8.18544 12.9248L8.18407 12.9242C7.89873 12.8144 7.673 12.7275 7.673 12.4629C7.673 12.1589 7.94329 12.0948 8.16975 12.0948C8.38881 12.0948 8.508 12.1562 8.59503 12.201C8.64535 12.2271 8.68517 12.2476 8.72875 12.2476C8.85871 12.2476 8.92395 12.0969 8.92395 12.0125C8.92395 11.8289 8.62992 11.7375 8.363 11.7077V11.4392C8.363 11.3004 8.25055 11.188 8.11177 11.188C7.97299 11.188 7.86054 11.3004 7.86054 11.4392V11.7288C7.69777 11.7653 7.56353 11.8326 7.46133 11.9278C7.36522 11.6588 7.23902 11.4009 7.08494 11.1598C8.76818 10.3092 10.7116 11.7688 10.3595 13.6294C10.0787 15.1154 8.44808 15.9304 7.08559 15.2481C7.21659 15.0448 7.3267 14.8302 7.41516 14.6067ZM7.55886 14.1707C7.64122 13.8589 7.68376 13.5354 7.68376 13.2065C7.77818 13.2554 7.87831 13.2952 7.9752 13.3334C8.2879 13.4569 8.55794 13.5638 8.55794 13.9145C8.55794 14.3046 8.23901 14.363 8.04913 14.363C7.78791 14.363 7.65367 14.2604 7.55886 14.1707Z" fill="#484094"/>
<path d="M1.14835 5.22486H2.43263C2.53795 5.22486 2.59061 5.10735 2.59061 4.99386C2.59061 4.87649 2.53795 4.763 2.43263 4.763H1.44406V2.42555C1.44406 2.31207 1.31047 2.26343 1.18077 2.26343C1.04718 2.26343 0.91748 2.31207 0.91748 2.42555V5.05871C0.91748 5.16818 1.03097 5.22486 1.14835 5.22486Z" fill="white"/>
<path d="M3.74485 5.2491C4.27947 5.2491 4.69685 4.99801 4.69685 4.32149V3.19129C4.69685 2.51465 4.27947 2.26355 3.74485 2.26355C3.20997 2.26355 2.79688 2.51465 2.79688 3.19129V4.32149C2.79688 4.99801 3.20997 5.2491 3.74485 5.2491ZM3.32346 3.19129C3.32346 2.87119 3.47741 2.72541 3.74485 2.72541C4.00814 2.72541 4.17014 2.87119 4.17014 3.19129V4.32149C4.17014 4.64146 4.00814 4.78737 3.74485 4.78737C3.47741 4.78737 3.32346 4.64146 3.32346 4.32149V3.19129Z" fill="white"/>
<path d="M5.45049 5.1195L5.60444 4.58073H6.53206L6.68601 5.1195C6.70624 5.19641 6.77511 5.22481 6.86422 5.22481C7.00274 5.22481 7.22945 5.12962 7.18834 4.96554L6.40651 2.41747C6.37006 2.29594 6.22013 2.23926 6.06618 2.23926C5.91637 2.23926 5.76644 2.29594 5.72999 2.41747C4.91898 5.06061 4.93999 4.98396 4.93999 5.00614C4.93999 5.20303 5.39692 5.323 5.45049 5.1195ZM6.06618 2.92381L6.4187 4.1675H5.71378L6.06618 2.92381Z" fill="white"/>
<path d="M8.00253 5.05871V3.4302L8.87359 5.05871C9.01561 5.31772 9.44077 5.24275 9.44077 5.05871V2.42554C9.44077 2.31206 9.30704 2.26355 9.17735 2.26355C9.04375 2.26355 8.91405 2.31206 8.91405 2.42554V4.05405L8.13223 2.54305C8.00668 2.30402 7.92963 2.26355 7.73923 2.26355C7.60564 2.26355 7.47607 2.31621 7.47607 2.42957V5.05871C7.47594 5.28114 8.00253 5.27855 8.00253 5.05871Z" fill="white"/>
<path d="M3.82914 14.363C3.5342 14.363 3.40113 14.2323 3.30399 14.137C3.24951 14.0834 3.20243 14.0372 3.14147 14.0372C3.03421 14.0372 2.94238 14.1667 2.94238 14.2725C2.94238 14.4515 3.20866 14.7008 3.64056 14.7626V15.0175C3.64056 15.1563 3.75301 15.2687 3.89178 15.2687C4.03043 15.2687 4.14288 15.1563 4.14288 15.0175V14.7437C4.54456 14.646 4.77621 14.3393 4.77621 13.8824C4.77621 12.7611 3.45314 13.0826 3.45314 12.4628C3.45314 12.1587 3.72318 12.0948 3.94976 12.0948C4.16869 12.0948 4.28789 12.1563 4.37505 12.2012C4.42537 12.2271 4.46519 12.2476 4.50877 12.2476C4.6386 12.2476 4.7037 12.0969 4.7037 12.0125C4.7037 11.8291 4.40981 11.7375 4.14288 11.708V11.4392C4.14288 11.3004 4.03043 11.188 3.89165 11.188C3.75301 11.188 3.64056 11.3004 3.64056 11.4392V11.729C3.24342 11.8185 3.01476 12.0908 3.01476 12.495C3.01476 13.5083 4.33782 13.1576 4.33782 13.9145C4.33782 14.3047 4.01915 14.363 3.82914 14.363Z" fill="white"/>
<path d="M8.38676 14.1751C8.09182 14.1751 7.95875 14.0443 7.8616 13.949C7.80713 13.8954 7.76005 13.8492 7.69909 13.8492C7.59183 13.8492 7.5 13.9787 7.5 14.0845C7.5 14.2635 7.76627 14.5128 8.19817 14.5747V14.8295C8.19817 14.9683 8.31062 15.0807 8.4494 15.0807C8.58805 15.0807 8.7005 14.9683 8.7005 14.8295V14.5557C9.10218 14.4581 9.33382 14.1513 9.33382 13.6944C9.33382 12.5731 8.01076 12.8947 8.01076 12.2748C8.01076 11.9707 8.28079 11.9069 8.50738 11.9069C8.72631 11.9069 8.8455 11.9683 8.93266 12.0132C8.98299 12.0392 9.0228 12.0596 9.06638 12.0596C9.19621 12.0596 9.26132 11.9089 9.26132 11.8245C9.26132 11.6411 8.96742 11.5495 8.7005 11.52V11.2512C8.7005 11.1124 8.58805 11 8.44927 11C8.31062 11 8.19817 11.1124 8.19817 11.2512V11.541C7.80103 11.6305 7.57237 11.9028 7.57237 12.307C7.57237 13.3203 8.89544 12.9696 8.89544 13.7265C8.89544 14.1167 8.57677 14.1751 8.38676 14.1751Z" fill="white"/>
</svg>
