<svg width="13" height="13" viewBox="0 0 13 13" fill="none" xmlns="http://www.w3.org/2000/svg">
<path fill-rule="evenodd" clip-rule="evenodd" d="M3.41658 0.565186C3.07729 0.565186 2.80225 0.84023 2.80225 1.17952V2.42052C2.99861 2.37169 3.20446 2.34572 3.4166 2.34572C3.62872 2.34572 3.83456 2.37169 4.03091 2.42051V1.17952C4.03091 0.840231 3.75586 0.565186 3.41658 0.565186ZM4.03091 7.01877C3.83456 7.06758 3.62872 7.09355 3.4166 7.09355C3.20446 7.09355 2.99861 7.06758 2.80225 7.01875V11.8204C2.80225 12.1597 3.07729 12.4348 3.41658 12.4348C3.75586 12.4348 4.03091 12.1597 4.03091 11.8204V7.01877Z" fill="#6E62E4"/>
<ellipse cx="3.41629" cy="4.7196" rx="1.72073" ry="1.66174" fill="#6E62E4"/>
<path fill-rule="evenodd" clip-rule="evenodd" d="M9.89753 12.4347C9.55825 12.4347 9.2832 12.1596 9.2832 11.8204V10.5793C9.47958 10.6282 9.68546 10.6542 9.89762 10.6542C10.1097 10.6542 10.3155 10.6282 10.5119 10.5794V11.8204C10.5119 12.1596 10.2368 12.4347 9.89753 12.4347ZM10.5119 5.9811C10.3155 5.93229 10.1097 5.90633 9.89762 5.90633C9.68546 5.90633 9.47958 5.9323 9.2832 5.98114V1.17946C9.2832 0.840172 9.55825 0.565126 9.89753 0.565126C10.2368 0.565126 10.5119 0.840172 10.5119 1.17946V5.9811Z" fill="#6E62E4"/>
<ellipse rx="1.72074" ry="1.66174" transform="matrix(1 0 0 -1 9.89725 8.28028)" fill="#6E62E4"/>
</svg>
