<svg width="13" height="13" viewBox="0 0 13 13" fill="none" xmlns="http://www.w3.org/2000/svg">
<path d="M6.87787 1.0244V0.592819C6.87787 0.354458 6.68465 0.16124 6.44629 0.16124H0.43158C0.193218 0.16124 0 0.354458 0 0.592819V1.0244C0 1.26276 0.193218 1.45598 0.43158 1.45598H6.44629C6.68465 1.45598 6.87787 1.26276 6.87787 1.0244Z" fill="#313131"/>
<path d="M5.63583 2.8802H0.43158C0.193218 2.8802 0 3.07342 0 3.31178V3.74336C0 3.98172 0.193218 4.17494 0.43158 4.17494H5.63583C5.87419 4.17494 6.06741 3.98172 6.06741 3.74336V3.31178C6.06741 3.07342 5.87419 2.8802 5.63583 2.8802Z" fill="#313131"/>
<path d="M4.82528 5.59914H0.43158C0.193218 5.59914 0 5.79235 0 6.03072V6.46229C0 6.70066 0.193218 6.89387 0.43158 6.89387H4.82528C5.06364 6.89387 5.25686 6.70066 5.25686 6.46229V6.03072C5.25686 5.79235 5.06364 5.59914 4.82528 5.59914Z" fill="#313131"/>
<path d="M4.01477 8.62019H0.43158C0.193218 8.62019 0 8.81341 0 9.05177V9.48336C0 9.72172 0.193218 9.91494 0.43158 9.91494H4.01477C4.25309 9.91494 4.44635 9.72172 4.44635 9.48336V9.05177C4.44635 8.81341 4.25313 8.62019 4.01477 8.62019Z" fill="#313131"/>
<path d="M3.20422 11.3392H0.43158C0.193218 11.3392 0 11.5324 0 11.7707V12.2023C0 12.4407 0.193218 12.6339 0.43158 12.6339H3.20422C3.44254 12.6339 3.6358 12.4407 3.6358 12.2023V11.7707C3.6358 11.5324 3.44258 11.3392 3.20422 11.3392Z" fill="#313131"/>
<path d="M12.8736 9.35997L12.5684 9.0548C12.4875 8.97388 12.3777 8.92839 12.2632 8.92839C12.1488 8.92839 12.039 8.97388 11.958 9.0548L10.4737 10.5391V0.808609C10.4737 0.570248 10.2805 0.377029 10.0421 0.377029H9.61054C9.37218 0.377029 9.17896 0.570248 9.17896 0.808609V10.5391L7.69463 9.05476C7.61367 8.97384 7.50391 8.92835 7.38946 8.92835C7.275 8.92835 7.16521 8.97384 7.08429 9.05476L6.77908 9.35993C6.61059 9.52846 6.61059 9.80174 6.77908 9.97027L9.52116 12.7124C9.60545 12.7966 9.71589 12.8388 9.82633 12.8388C9.93677 12.8388 10.0473 12.7966 10.1315 12.7124L12.8736 9.97027C13.0421 9.80174 13.0421 9.52846 12.8736 9.35997Z" fill="#313131"/>
</svg>
