<svg width="5" height="5" viewBox="0 0 5 5" fill="none" xmlns="http://www.w3.org/2000/svg">
<path d="M1.20424 1.85583C1.12462 1.74303 0.968629 1.71613 0.855829 1.79576C0.743029 1.87538 0.716135 2.03137 0.795758 2.14417L1.20424 1.85583ZM2.41176 4L2.20752 4.14417C2.25453 4.21077 2.33107 4.25027 2.41259 4.25C2.49411 4.24973 2.57038 4.20973 2.61695 4.14283L2.41176 4ZM4.70519 1.14283C4.78407 1.0295 4.75615 0.873695 4.64283 0.794815C4.5295 0.715935 4.37369 0.743854 4.29481 0.857175L4.70519 1.14283ZM0.795758 2.14417L2.20752 4.14417L2.61601 3.85583L1.20424 1.85583L0.795758 2.14417ZM2.61695 4.14283L4.70519 1.14283L4.29481 0.857175L2.20658 3.85717L2.61695 4.14283Z" fill="white"/>
</svg>
