<svg width="51" height="51" viewBox="0 0 51 51" fill="none" xmlns="http://www.w3.org/2000/svg">
<circle cx="25.5" cy="25.5" r="25" fill="#95CDF9" stroke="white"/>
<mask id="mask0_237_52" style="mask-type:alpha" maskUnits="userSpaceOnUse" x="0" y="0" width="51" height="51">
<circle cx="25.5" cy="25.5" r="25.5" fill="#95CDF9"/>
</mask>
<g mask="url(#mask0_237_52)">
<path d="M45.0694 49.5158C44.6016 47.2235 43.011 45.4926 41.0462 44.6505C40.9059 44.5569 40.8123 44.5101 40.6252 44.4634L25.0937 38.8028L10.9657 44.5101C10.7318 44.6037 10.5447 44.6973 10.3108 44.7908C10.3108 44.7908 10.3108 44.7908 10.264 44.7908C8.43954 45.6797 7.0361 47.3638 6.56829 49.469L6.2876 50.8256H45.3501L45.0694 49.5158Z" fill="white"/>
<path d="M14.9419 42.9196L25.2806 38.7092L34.1691 42.1243C34.1691 42.1243 36.7421 47.1767 28.7892 47.8316C18.8248 48.6269 14.9419 42.9196 14.9419 42.9196Z" fill="#CA927B"/>
<path d="M28.0877 9.65797C28.0877 9.65797 31.6899 8.0674 34.6839 10.9211C37.6779 13.7747 35.5727 15.646 38.2393 17.0494C40.9058 18.4529 38.941 22.3357 42.0754 24.1134C45.1629 25.8911 43.1513 30.2418 39.9234 30.85C39.9234 30.85 38.3796 34.8732 35.0114 34.4989C35.0114 34.4989 31.877 37.9608 25.8422 35.762L23.5967 34.8264L28.0877 9.65797Z" fill="#132142"/>
<path d="M15.7841 10.8743C15.7841 10.8743 11.7609 11.3889 10.9656 14.991C10.1703 18.5932 10.451 17.7044 8.25227 19.5288C6.05355 21.3533 8.86043 23.4117 7.08274 25.2362C6.19389 26.1718 5.77286 26.9203 5.67929 27.8092C5.53895 29.3529 6.61492 30.7564 8.11193 31.1774C9.14112 31.4581 9.98319 32.4405 10.5913 33.7504C11.8077 36.3702 16.1116 35.2474 16.1116 35.2474C16.1116 35.2474 20.1815 37.6333 22.661 35.8556C25.1404 34.0779 21.3979 9.89185 21.3979 9.89185L15.7841 10.8743Z" fill="#132142"/>
<path d="M31.5961 9.84509C31.5961 9.84509 29.9587 6.10257 24.0642 6.10257C18.2166 6.10257 16.3921 11.8567 16.3921 11.8567L24.9531 16.5348L31.5961 9.84509Z" fill="#132142"/>
<path d="M18.6847 23.2246C19.2461 24.4409 19.7139 26.2654 18.0298 26.8735C16.8603 27.2946 15.4568 25.7508 14.9422 24.4877C14.3808 23.2714 14.7083 22.1954 15.8778 21.7744C17.0474 21.3065 18.1701 21.9615 18.6847 23.2246Z" fill="#CA927B"/>
<path d="M15.8311 23.2246C15.8311 23.2246 17.2345 22.8503 17.7959 24.7684" stroke="#995342" stroke-width="0.4819" stroke-miterlimit="10" stroke-linecap="round" stroke-linejoin="round"/>
<path d="M32.2512 23.2246C31.6898 24.4409 31.7366 26.4525 32.9061 26.8735C34.0757 27.2946 35.4791 25.7508 35.9937 24.4877C36.5551 23.2714 36.2276 22.1954 35.0581 21.7744C33.9353 21.3065 32.8126 21.9615 32.2512 23.2246Z" fill="#995342"/>
<path d="M36.2275 18.4997C36.2275 23.6924 31.8769 27.9495 26.497 27.9495C21.1171 27.9495 16.2051 23.5053 16.2051 18.3125C16.2051 13.1198 21.1171 9.09658 26.497 9.09658C31.8769 9.0498 36.2275 13.2601 36.2275 18.4997Z" fill="#132142"/>
<path d="M22.8482 29.9611L21.6318 41.75H28.9297L27.6666 29.8208L22.8482 29.9611Z" fill="#CA927B"/>
<path d="M22.708 31.4113L28.3686 36.4637L27.7604 30.5225L22.708 31.4113Z" fill="#995342"/>
<path d="M26.6377 10.1726C22.0999 10.1726 18.0767 13.6812 18.0767 18.0318L18.3573 23.2246C18.3573 23.2246 18.4509 30.6161 25.4681 32.8616C26.2634 33.0955 27.1055 33.0955 27.854 32.8616C34.8712 30.6161 34.9648 23.2246 34.9648 23.2246L35.2455 18.0318C35.1987 13.6812 31.1755 10.1726 26.6377 10.1726Z" fill="#CA927B"/>
<path d="M26.0293 27.3881C26.0293 27.3881 26.1229 28.4641 27.5731 28.4641C29.0233 28.4641 29.1169 27.3881 29.1169 27.3881H26.0293Z" fill="#DE5A62"/>
<path d="M28.4151 24.3474L28.6022 25.5637H27.7134" stroke="#995342" stroke-width="0.4819" stroke-miterlimit="10" stroke-linecap="round" stroke-linejoin="round"/>
<path d="M25.7487 22.5697C25.7487 22.5697 25.1406 21.0726 23.7371 21.0259C22.2869 20.9791 21.4448 22.1018 21.4448 22.1018C21.4448 22.1018 21.8191 23.3649 23.55 23.4585C25.2809 23.5521 25.7487 22.5697 25.7487 22.5697Z" fill="white"/>
<path d="M22.1466 22.1954C22.0998 22.9907 22.7079 23.6456 23.5032 23.6924C24.2985 23.7392 24.9535 23.131 25.0002 22.3358C25.047 21.5405 24.4389 20.8855 23.6436 20.8388C22.8483 20.792 22.1934 21.4001 22.1466 22.1954Z" fill="#132142"/>
<path d="M25.7487 22.5697C25.7487 22.5697 25.1873 21.0259 23.7371 21.0259C22.2401 21.0259 21.4448 22.1019 21.4448 22.1019" stroke="#132142" stroke-width="0.3755" stroke-miterlimit="10" stroke-linecap="round" stroke-linejoin="round"/>
<path d="M29.5381 22.5697C29.5381 22.5697 30.0995 21.0726 31.4561 21.0259C32.8128 20.9791 33.6081 22.1018 33.6081 22.1018C33.6081 22.1018 33.2806 23.3649 31.5965 23.4585C30.0059 23.5521 29.5381 22.5697 29.5381 22.5697Z" fill="white"/>
<path d="M32.9532 22.1954C32.9999 22.9907 32.3918 23.6456 31.6433 23.6924C30.8948 23.7392 30.2398 23.131 30.2398 22.3358C30.1931 21.5405 30.8012 20.8855 31.5497 20.8388C32.2982 20.792 32.9064 21.4001 32.9532 22.1954Z" fill="#132142"/>
<path d="M29.5381 22.5697C29.5381 22.5697 30.0527 21.0259 31.4561 21.0259C32.8596 21.0259 33.6081 22.1019 33.6081 22.1019" stroke="#132142" stroke-width="0.3648" stroke-miterlimit="10" stroke-linecap="round" stroke-linejoin="round"/>
<path d="M23.0819 17.4705C23.0819 17.4705 21.6317 17.6576 20.93 18.0786C20.5089 18.3593 20.5089 18.8271 21.0235 19.0143C21.4913 19.1546 22.5205 19.061 23.1755 19.0143C24.6725 18.8271 25.7017 18.2658 25.6081 17.7979C25.4678 17.2366 23.8772 17.3301 23.0819 17.4705Z" fill="#132142"/>
<path d="M31.8301 17.4705C31.8301 17.4705 33.1868 17.6576 33.8885 18.0786C34.3095 18.3593 34.3095 18.8271 33.7949 19.0143C33.3271 19.1546 32.3447 19.0611 31.7833 19.0143C30.3799 18.8271 29.3975 18.2658 29.491 17.798C29.6314 17.2366 31.1284 17.3301 31.8301 17.4705Z" fill="#132142"/>
<path d="M29.1168 27.3881C29.1168 27.3881 27.7133 26.5929 25.9824 27.3881C26.0292 27.3881 27.7133 28.0899 29.1168 27.3881Z" fill="#DE5A62"/>
<path d="M25.6548 27.2478C25.6548 27.2478 27.3857 28.2302 29.4441 27.2478" stroke="#995342" stroke-width="0.4819" stroke-miterlimit="10" stroke-linecap="round" stroke-linejoin="round"/>
<path d="M31.8302 9.84509C31.8302 9.84509 31.4091 13.9619 26.7778 14.6168C22.0528 15.2717 23.082 18.0318 17.3279 17.3769C17.3279 17.3769 15.2695 14.3829 18.3103 11.2953C20.4155 9.23694 24.3919 7.50602 27.2456 7.78671C28.1812 7.88027 30.4735 9.56441 31.8302 9.84509Z" fill="#132142"/>
<path d="M31.222 10.1726C31.222 10.1726 28.2748 13.1198 36.4148 18.4997C36.4148 18.4997 36.789 16.8155 35.9002 15.0846C35.0581 13.3537 31.222 10.1726 31.222 10.1726Z" fill="#132142"/>
</g>
</svg>
