<svg width="16" height="16" viewBox="0 0 16 16" fill="none" xmlns="http://www.w3.org/2000/svg">
<circle cx="8" cy="8" r="8" fill="white"/>
<path d="M7.57202 5.12619C7.70673 4.7116 8.29327 4.7116 8.42798 5.12619L8.72765 6.04848C8.85483 6.4399 9.21958 6.70492 9.63115 6.70492H10.6009C11.0368 6.70492 11.2181 7.26274 10.8654 7.51897L10.0809 8.08898C9.7479 8.33089 9.60857 8.75969 9.73575 9.15111L10.0354 10.0734C10.1701 10.488 9.69562 10.8327 9.34294 10.5765L8.5584 10.0065C8.22543 9.7646 7.77457 9.7646 7.4416 10.0065L6.65706 10.5765C6.30439 10.8327 5.82987 10.488 5.96458 10.0734L6.26425 9.15111C6.39143 8.75969 6.2521 8.33089 5.91914 8.08898L5.13459 7.51897C4.78192 7.26274 4.96317 6.70492 5.3991 6.70492H6.36885C6.78042 6.70492 7.14517 6.4399 7.27235 6.04848L7.57202 5.12619Z" stroke="#8479EC" stroke-width="0.5"/>
</svg>
